<?xml version="1.0" encoding="UTF-8"?>
<svg width="47px" height="21px" viewBox="0 0 47 21" version="1.1" xmlns="http://www.w3.org/2000/svg" xmlns:xlink="http://www.w3.org/1999/xlink">
    <!-- Generator: Sketch 53 (72520) - https://sketchapp.com -->
    <desc>Created with Sketch.</desc>
    <g id="Welcome" stroke="none" stroke-width="1" fill="none" fill-rule="evenodd">
        <g id="more">
            <g id="Group-7">
                <path d="M10.5,0 L36.5,0 C42.2989899,-1.06525716e-15 47,4.70101013 47,10.5 L47,10.5 C47,16.2989899 42.2989899,21 36.5,21 L10.5,21 C4.70101013,21 7.10171439e-16,16.2989899 0,10.5 L0,10.5 C-7.10171439e-16,4.70101013 4.70101013,1.06525716e-15 10.5,0 Z" id="App-Icon" fill="#666666" opacity="0.304803757"></path>
                <path d="M16.0604178,13 C14.679706,13 13.5604178,11.8807119 13.5604178,10.5 C13.5604178,9.11928813 14.679706,8 16.0604178,8 C17.4411297,8 18.5604178,9.11928813 18.5604178,10.5 C18.5604178,11.8807119 17.4411297,13 16.0604178,13 Z M24.0604178,13 C22.679706,13 21.5604178,11.8807119 21.5604178,10.5 C21.5604178,9.11928813 22.679706,8 24.0604178,8 C25.4411297,8 26.5604178,9.11928813 26.5604178,10.5 C26.5604178,11.8807119 25.4411297,13 24.0604178,13 Z M32.0604178,13 C30.679706,13 29.5604178,11.8807119 29.5604178,10.5 C29.5604178,9.11928813 30.679706,8 32.0604178,8 C33.4411297,8 34.5604178,9.11928813 34.5604178,10.5 C34.5604178,11.8807119 33.4411297,13 32.0604178,13 Z" id="Dot" fill="#FFFFFF"></path>
            </g>
        </g>
    </g>
</svg>