<?xml version="1.0" encoding="UTF-8"?>
<svg width="29px" height="19px" viewBox="0 0 29 19" version="1.1" xmlns="http://www.w3.org/2000/svg" xmlns:xlink="http://www.w3.org/1999/xlink">
    <!-- Generator: Sketch 53 (72520) - https://sketchapp.com -->
    <desc>Created with Sketch.</desc>
    <g id="Welcome" stroke="none" stroke-width="1" fill="none" fill-rule="evenodd">
        <g id="noun_Ship_1672173" fill="#FFFFFF" fill-rule="nonzero">
            <path d="M28.7800179,16.8971616 C28.6393307,16.7556512 28.4484239,16.6761383 28.2493515,16.6761383 C28.050279,16.6761383 27.8593723,16.7556512 27.7186851,16.8971616 C26.9564143,17.627012 25.7679577,17.6584924 24.9684707,16.9700104 C25.2771865,16.6161379 25.5111048,16.2029204 25.6560243,15.7554445 L27.358657,10.3545826 C27.4930442,9.91982406 27.4142349,9.44679128 27.1462568,9.07970458 C26.8782787,8.71261787 26.452896,8.4949889 25.9998011,8.49316932 L24.9997231,8.49316932 L24.9997231,5.88693945 C24.9966932,4.78415642 24.1480564,3.87016884 23.0533213,3.79065143 L23.0533213,2.11136019 C23.0519436,0.945861994 22.1119152,0.0013842036 20.9519075,0 L19.3905357,0 C18.230528,0.0013842036 17.2904996,0.945861994 17.2891219,2.11136019 L17.2891219,3.77432325 L13.186302,3.77432325 C12.026295,3.77640058 11.0868256,4.72144035 11.0861382,5.88693945 L11.0861382,8.49316932 L1.42538494,8.49316932 C0.862024857,8.48791135 0.34971249,8.82036639 0.12278337,9.338467 C-0.107012177,9.86047011 -0.00900608746,10.4695069 0.372802865,10.8921568 L5.26943467,16.233986 C4.91693527,16.3999862 4.59487928,16.624624 4.31686039,16.8984176 C3.52257925,17.6606428 2.27217018,17.6606428 1.47788903,16.8984176 C1.18515529,16.6036047 0.709980437,16.6030423 0.41655629,16.8971616 C0.123132143,17.1912809 0.122572449,17.6687049 0.415306179,17.9635178 C1.80341097,19.2957778 3.98883826,19.2957778 5.37694305,17.9635178 C6.16208576,17.1787203 7.43077171,17.1787203 8.21591441,17.9635178 C9.60401921,19.2957778 11.7894465,19.2957778 13.1775513,17.9635178 C13.962694,17.1787203 15.2313799,17.1787203 16.0165226,17.9635178 C17.4046274,19.2957778 19.5900547,19.2957778 20.9781595,17.9635178 C21.6297818,17.315042 22.6354937,17.1915743 23.4233502,17.6633304 L23.4358512,17.6708665 C23.5742603,17.7525594 23.7022896,17.8508283 23.8171309,17.9635178 C24.4740709,18.6269816 25.3671149,19 26.2985744,19 C27.2300339,19 28.1230778,18.6269816 28.7800179,17.9635178 C28.9208616,17.8221648 29,17.6303544 29,17.4303397 C29,17.230325 28.9208616,17.0385147 28.7800179,16.8971616 Z M18.7892388,2.11136019 C18.7899265,1.77798788 19.0587339,1.5079082 19.3905357,1.50721727 L20.9444069,1.50721727 C21.2762087,1.5079082 21.5450161,1.77798788 21.5457038,2.11136019 L21.5457038,3.77432325 L18.7892388,3.77432325 L18.7892388,2.11136019 Z M12.5850051,5.88693945 C12.5856928,5.55356714 12.8545001,5.28348746 13.186302,5.28279653 L22.8908087,5.28279653 C23.2226105,5.28348746 23.4914179,5.55356714 23.4921055,5.88693945 L23.4921055,8.49316932 L12.5850051,8.49316932 L12.5850051,5.88693945 Z M23.6683693,16.1309928 C22.3754102,15.6408399 20.9172433,15.9392256 19.9180769,16.8984176 C19.1237957,17.6606428 17.8733866,17.6606428 17.0791055,16.8984176 C16.4222647,16.2357254 15.5297574,15.8631973 14.5989121,15.8631973 C13.6680668,15.8631973 12.7755596,16.2357254 12.1187187,16.8984176 C11.3245299,17.6620857 10.0726861,17.6620857 9.27849727,16.8984176 C8.66627546,16.2877562 7.85007621,15.9274121 6.98831869,15.887326 L1.5903978,10.0003866 L24.2396638,10.0003866 L25.9297956,9.90116145 L24.228413,15.3020233 C24.1191412,15.6234737 23.9256783,15.9094011 23.6683693,16.1297368 L23.6683693,16.1309928 Z" id="Shape" transform="translate(14.500000, 9.500000) scale(-1, 1) translate(-14.500000, -9.500000) "></path>
        </g>
    </g>
</svg>