<?xml version="1.0" encoding="UTF-8"?>
<svg width="36px" height="20px" viewBox="0 0 36 20" version="1.1" xmlns="http://www.w3.org/2000/svg" xmlns:xlink="http://www.w3.org/1999/xlink">
    <!-- Generator: Sketch 53 (72520) - https://sketchapp.com -->
    <desc>Created with Sketch.</desc>
    <g id="Welcome" stroke="none" stroke-width="1" fill="none" fill-rule="evenodd">
        <g id="noun_Tank_1881527" transform="translate(18.000000, 10.000000) scale(-1, 1) translate(-18.000000, -10.000000) " fill-rule="nonzero">
            <path d="M32.5393548,7.50280494 L26.991871,7.50280494 L25.6045161,2.0564193 C25.5375484,1.79235454 25.3068387,1.60843084 25.0432258,1.60843084 L22.2971613,1.60843084 L22.2971613,0.601057862 C22.2971613,0.268873217 22.0374194,0 21.7165161,0 L17.0976774,0 C16.7767742,0 16.5170323,0.268873217 16.5170323,0.601057862 L16.5170323,1.60843084 L13.7709677,1.60843084 C13.5073548,1.60843084 13.2766452,1.79235454 13.2096774,2.0564193 L12.8307097,3.54343645 L5.17896774,3.54343645 L5.17896774,3.51458567 C5.17896774,3.18240103 4.91922581,2.91352781 4.59832258,2.91352781 L0.580645161,2.91352781 C0.259741935,2.91352781 0,3.18240103 0,3.51458567 L0,6.54351659 C0,6.87570123 0.259741935,7.14457445 0.580645161,7.14457445 L4.59832258,7.14457445 C4.91922581,7.14457445 5.17896774,6.87570123 5.17896774,6.54351659 L5.17896774,6.5138644 L12.0743226,6.5138644 L11.8223226,7.50280494 L6.27445161,7.50280494 C4.36606452,7.50280494 2.81380645,9.11003366 2.81380645,11.0851098 L2.81380645,12.0960891 L2.81380645,14.2875461 C2.81380645,15.1823209 3.37354839,16.277849 4.08851613,16.7811348 L7.49070968,19.1769514 C8.14567742,19.6381632 9.27987097,20 10.0722581,20 L28.7419355,20 C29.5343226,20 30.6685161,19.6385639 31.3234839,19.1769514 L34.7252903,16.7811348 C35.4402581,16.277849 36,15.1827216 36,14.2875461 L36,12.0960891 L36,11.0851098 C36,9.11003366 34.4473548,7.50280494 32.5393548,7.50280494 Z M17.6783226,1.20211572 L21.135871,1.20211572 L21.135871,1.60843084 L17.6783226,1.60843084 L17.6783226,1.20211572 Z M4.01767742,5.94205802 L1.16129032,5.94205802 L1.16129032,4.11524283 L4.01767742,4.11524283 L4.01767742,4.1440936 L4.01767742,5.91280654 L4.01767742,5.94205802 Z M5.17896774,5.31174868 L5.17896774,4.74515147 L12.5249032,4.74515147 L12.3940645,5.25925629 L12.3809032,5.31134797 L5.17896774,5.31134797 L5.17896774,5.31174868 Z M13.404,6.00857509 L13.839871,4.29756371 C13.839871,4.29716301 13.839871,4.2967623 13.839871,4.2963616 L14.2184516,2.81054656 L17.0976774,2.81054656 L21.7165161,2.81054656 L24.5957419,2.81054656 L25.7907097,7.50280494 L13.0234839,7.50280494 L13.404,6.00857509 Z M3.97509677,11.0851098 C3.97509677,9.77280013 5.00670968,8.70492066 6.27445161,8.70492066 L12.2694194,8.70492066 L26.544,8.70492066 C26.5463226,8.70492066 26.5490323,8.70492066 26.5517419,8.70492066 L32.5393548,8.70492066 C33.8070968,8.70492066 34.8387097,9.77280013 34.8387097,11.0851098 L34.8387097,11.4950313 L3.97509677,11.4950313 L3.97509677,11.0851098 Z M31.3064516,15.747716 C31.3064516,17.4294759 29.9845161,18.7978843 28.359871,18.7978843 C26.7352258,18.7978843 25.4132903,17.4294759 25.4132903,15.747716 C25.4132903,14.0659561 26.7352258,12.6975477 28.359871,12.6975477 C29.9845161,12.6975477 31.3064516,14.0659561 31.3064516,15.747716 Z M22.3536774,15.747716 C22.3536774,17.4294759 21.0317419,18.7978843 19.4070968,18.7978843 C17.7824516,18.7978843 16.4605161,17.4294759 16.4605161,15.747716 C16.4605161,14.0659561 17.7824516,12.6975477 19.4070968,12.6975477 C21.0317419,12.6975477 22.3536774,14.0659561 22.3536774,15.747716 Z M13.4005161,15.747716 C13.4005161,17.4294759 12.0785806,18.7978843 10.4539355,18.7978843 C8.82929032,18.7978843 7.50735484,17.4294759 7.50735484,15.747716 C7.50735484,14.0659561 8.82929032,12.6975477 10.4539355,12.6975477 C12.0785806,12.6975477 13.4005161,14.0659561 13.4005161,15.747716 Z M3.97509677,14.2879468 L3.97509677,12.6975477 L7.59793548,12.6975477 C6.82722581,13.4709088 6.34606452,14.5516108 6.34606452,15.747716 C6.34606452,16.2057221 6.41845161,16.6456964 6.54812903,17.0592242 L4.74154839,15.7873858 C4.34051613,15.5048886 3.97509677,14.7900305 3.97509677,14.2879468 Z M13.3095484,18.7978843 C14.0802581,18.0245232 14.5614194,16.9442218 14.5614194,15.747716 C14.5614194,14.5512101 14.079871,13.4709088 13.3091613,12.6975477 L16.5507097,12.6975477 C15.78,13.4709088 15.2988387,14.5516108 15.2988387,15.747716 C15.2988387,16.9438211 15.7803871,18.0245232 16.5507097,18.7978843 L13.3095484,18.7978843 Z M22.2627097,18.7978843 C23.0334194,18.0245232 23.5145806,16.9442218 23.5145806,15.747716 C23.5145806,14.5512101 23.0330323,13.4709088 22.2623226,12.6975477 L25.503871,12.6975477 C24.7331613,13.4709088 24.252,14.5516108 24.252,15.747716 C24.252,16.9438211 24.7335484,18.0245232 25.503871,18.7978843 L22.2627097,18.7978843 Z M34.8387097,14.2879468 C34.8387097,14.7900305 34.4732903,15.5048886 34.0722581,15.7873858 L32.2656774,17.0596249 C32.3957419,16.6460971 32.4677419,16.2057221 32.4677419,15.7481167 C32.4677419,14.5520115 31.9861935,13.4713095 31.2154839,12.6979484 L34.8387097,12.6979484 L34.8387097,14.2879468 Z" id="Shape" fill="#FFFFFF"></path>
            <path d="M8.99980519,17 C10.1027965,17 11,16.1027965 11,15.0001949 C11,13.8972035 10.1027965,13 8.99980519,13 C7.8968139,13 7.00000013,13.8972035 7.00000013,15.0001949 C6.99961038,16.1027965 7.8968139,17 8.99980519,17 Z M8.99980519,14.168859 C9.45776094,14.168859 9.83075128,14.5418494 9.83075128,14.9998051 C9.83075128,15.4577609 9.45776094,15.8303615 8.99980519,15.8303615 C8.54184944,15.8303615 8.16924885,15.4577609 8.16924885,14.9998051 C8.1688591,14.5418494 8.54145969,14.168859 8.99980519,14.168859 Z" id="Shape" fill="#000000"></path>
            <path d="M18.9998051,17 C20.1027965,17 21,16.1027965 21,15.0001949 C21,13.8972035 20.1027965,13 18.9998051,13 C17.8968138,13 17,13.8972035 17,15.0001949 C17,16.1027965 17.8972035,17 18.9998051,17 Z M18.9998051,14.168859 C19.4577609,14.168859 19.8307512,14.5418494 19.8307512,14.9998051 C19.8307512,15.4577609 19.4577609,15.8303615 18.9998051,15.8303615 C18.5418494,15.8303615 18.1692488,15.4577609 18.1692488,14.9998051 C18.1692488,14.5418494 18.5418494,14.168859 18.9998051,14.168859 Z" id="Shape" fill="#000000"></path>
            <path d="M26.9998051,17 C28.1027965,17 29,16.1027965 29,15.0001949 C29,13.8972035 28.1027965,13 26.9998051,13 C25.8968138,13 25,13.8972035 25,15.0001949 C25,16.1027965 25.8972035,17 26.9998051,17 Z M26.9998051,14.168859 C27.4577609,14.168859 27.8307512,14.5418494 27.8307512,14.9998051 C27.8307512,15.4577609 27.4577609,15.8303615 26.9998051,15.8303615 C26.5418494,15.8303615 26.1692488,15.4577609 26.1692488,14.9998051 C26.1692488,14.5418494 26.5418494,14.168859 26.9998051,14.168859 Z" id="Shape" fill="#000000"></path>
        </g>
    </g>
</svg>