<?xml version="1.0" encoding="UTF-8"?>
<svg width="36px" height="20px" viewBox="0 0 36 20" version="1.1" xmlns="http://www.w3.org/2000/svg" xmlns:xlink="http://www.w3.org/1999/xlink">
    <!-- Generator: Sketch 53 (72520) - https://sketchapp.com -->
    <desc>Created with Sketch.</desc>
    <g id="Welcome" stroke="none" stroke-width="1" fill="none" fill-rule="evenodd">
        <g id="noun_Helicopter_2316621" fill-rule="nonzero">
            <path d="M35.4374997,1.93815947 C35.6377274,1.94021141 35.8236343,1.83511723 35.9243483,1.66294135 C36.0250623,1.49076547 36.0250623,1.27804193 35.9243483,1.10586605 C35.8236343,0.933690174 35.6377274,0.82859599 35.4374997,0.830647932 L26.1562447,0.830647932 L26.1562447,0.553766551 C26.1530105,0.246994747 25.9021203,0 25.5937444,0 C25.2853684,0 25.0344782,0.246994747 25.0312441,0.553766551 L25.0312441,0.830647932 L15.749989,0.830647932 C15.5497613,0.82859599 15.3638544,0.933690174 15.2631404,1.10586605 C15.1624264,1.27804193 15.1624264,1.49076547 15.2631404,1.66294135 C15.3638544,1.83511723 15.5497613,1.94021141 15.749989,1.93815947 L25.0312441,1.93815947 L25.0312441,4.70986644 L24.1874936,4.70986644 C23.2608123,4.7060538 22.5059043,5.44922053 22.4999927,6.37112116 L22.4999927,6.92486713 L21.9153833,6.92486713 C20.1721867,6.91715793 18.5258804,7.72174126 17.466605,9.09907541 C17.2552219,9.37291223 17.0696389,9.66553536 16.9122075,9.97323725 L6.12017788,9.98372424 L4.21516091,6.12885974 C4.11998904,5.93765068 3.92385928,5.81686882 3.70938876,5.81739197 L0.562480802,5.81739197 C0.3677152,5.817012 0.186551061,5.91668473 0.0833402298,6.08100512 C-0.0189622946,6.24454232 -0.027614464,6.44946053 0.0605420925,6.62095683 L1.79279553,9.99288498 C0.81048522,10.0283186 0.0254286608,10.8179607 0.00060348274,11.7955451 C-0.0242216953,12.7731296 0.71975397,13.6012018 1.69901267,13.6859369 L1.82765649,13.6989841 L0.889594417,15.842831 C0.814762098,16.0138869 0.832345412,16.2110404 0.936281942,16.3663163 C1.04123168,16.5223009 1.21755693,16.6158315 1.40623126,16.615598 L4.32145378,16.615598 C4.54900064,16.616195 4.75449184,16.4803352 4.8420675,16.2713961 L5.74548798,14.0964911 L17.0778582,15.2461997 C18.0878451,16.9501644 19.9269964,17.9971137 21.9153833,17.9999937 L33.1986219,17.9999937 C34.7399922,18.0032239 35.9931554,16.7646468 36,15.2312218 C35.9839941,11.0500682 32.8562468,7.52792993 28.687496,6.99665327 L28.687496,6.37112116 C28.6815875,5.44921834 27.9266786,4.70604822 26.9999951,4.70986085 L26.1562447,4.70986085 L26.1562447,1.93815947 L35.4374997,1.93815947 Z M1.47736786,6.92487273 L3.35754482,6.92487273 L4.86977907,9.98495538 L3.04977277,9.98671533 L3.04841715,9.98324858 L1.47736786,6.92487273 Z M3.94379951,15.5080948 L2.26096735,15.5080948 L3.00052025,13.8180093 L4.57930673,13.9781822 L3.94379951,15.5080948 Z M1.81437304,12.5843851 C1.40969041,12.5519173 1.10452129,12.2048683 1.12598531,11.8015264 C1.14744932,11.3981845 1.48774606,11.0851315 1.89361246,11.0953545 L16.4877897,11.0811629 C16.2432753,12.0213576 16.2542432,13.0093025 16.519571,13.9438952 C16.5326351,13.9904152 16.5500923,14.0348003 16.5643235,14.0807746 L1.81437304,12.5843851 Z M22.4999927,8.03238707 L26.1562447,8.03238707 L26.1562447,8.69051337 C26.1482412,10.2532082 26.8418338,11.7378841 28.0477138,12.7393146 L26.3163716,12.7393146 C24.2120749,12.7393146 22.4999927,10.923108 22.4999927,8.69051337 L22.4999927,8.03238707 Z M34.8749994,15.2312218 C34.872171,16.1500763 34.1222343,16.8932502 33.1986219,16.8924822 L21.9153833,16.8924822 C19.9111142,16.8910655 18.1510826,15.5668551 17.6039338,13.6486392 C17.2571899,12.4025154 17.4747614,11.0678836 18.1996055,9.99465623 C18.9244497,8.92142888 20.0842723,8.21664727 21.3749921,8.06509038 L21.3749921,8.69051337 C21.3749921,11.5336567 23.591623,13.8468289 26.3163716,13.8468289 L34.7386493,13.8468289 C34.8291135,14.3028031 34.8747786,14.7664508 34.8749994,15.2312218 L34.8749994,15.2312218 Z M34.4252635,12.7393174 L31.0976242,12.7393174 C28.9933275,12.7393146 27.2812453,10.923108 27.2812453,8.69051337 L27.2812453,8.03238685 L27.6014964,8.03238707 C30.6403305,8.0316488 33.3603081,9.90784671 34.4252635,12.7393174 L34.4252635,12.7393174 Z M26.9999951,5.81739197 C27.3088747,5.81613441 27.5604992,6.06383531 27.5624954,6.37112116 L27.5624954,6.92486713 L23.6249933,6.92486713 L23.6249933,6.37112116 C23.6269896,6.06383531 23.8786141,5.81613441 24.1874936,5.81739197 L26.9999951,5.81739197 Z" id="Shape" fill="#FFFFFF"></path>
            <path d="M33.4348892,19.9999734 C33.6360877,20.001826 33.822896,19.9069389 33.9240983,19.7514852 C34.0253006,19.5960316 34.0253006,19.4039684 33.9240983,19.2485148 C33.822896,19.0930611 33.6360877,18.998174 33.4348892,19.0000266 L21.5651108,19.0000266 C21.3639123,18.998174 21.177104,19.0930611 21.0759017,19.2485148 C20.9746994,19.4039684 20.9746994,19.5960316 21.0759017,19.7514852 C21.177104,19.9069389 21.3639123,20.001826 21.5651108,19.9999734 L33.4348892,19.9999734 Z" id="Path" fill="#000000"></path>
        </g>
    </g>
</svg>