<?xml version="1.0" encoding="UTF-8"?>
<svg width="16px" height="16px" viewBox="0 0 16 16" version="1.1" xmlns="http://www.w3.org/2000/svg" xmlns:xlink="http://www.w3.org/1999/xlink">
    <!-- Generator: Sketch 53 (72520) - https://sketchapp.com -->
    <desc>Created with Sketch.</desc>
    <g id="Welcome" stroke="none" stroke-width="1" fill="none" fill-rule="evenodd">
        <g id="Group-7">
            <polygon id="Path-2" fill="#02ADDA" points="0.586234423 6 5.5 6 8 1 9.5 5.5 15.5 6 11.5 9.5 12.5 15 8.5 12.1639142 3.5 15.7249699 4.5 12.1639142 4.5 9.5"></polygon>
            <g id="Overrides/Icons/Icon-1" stroke="#02ADDA" stroke-width="0.916666667">
                <path d="M10.6774552,6.04402261 C10.1941444,6.04616248 9.77038821,5.72487099 9.62043149,5.25324522 L8.18186508,0.609333124 C8.1514442,0.515032359 8.07666353,0.458333333 8,0.458333333 C7.92333647,0.458333333 7.8485558,0.515032359 7.81974433,0.604242884 L6.37854348,5.25651092 C6.22945486,5.72536455 5.80496831,6.04683479 5.32369791,6.04402261 L0.637394135,6.0438928 C0.567430705,6.04222732 0.497820653,6.09413554 0.469924302,6.18255291 C0.439234583,6.27982385 0.471575656,6.38614731 0.541696528,6.4396516 L4.33379293,9.32996597 C4.7137843,9.61624783 4.87098545,10.1209818 4.7294419,10.5817202 L3.2847332,15.2468834 C3.26250352,15.3213913 3.27550954,15.4032673 3.31760353,15.4631906 C3.35420993,15.5153021 3.40647792,15.5425594 3.4642849,15.5415785 C3.49954266,15.5414042 3.53482468,15.5290149 3.57022486,15.5014063 L7.33855949,12.629633 C7.73225828,12.3309839 8.26774172,12.3309839 8.66225154,12.6302497 L12.4340934,15.5047379 C12.4651753,15.5290149 12.5004573,15.5414042 12.5415156,15.5416439 C12.5935221,15.5425594 12.6457901,15.5153021 12.6823965,15.4631906 C12.7244905,15.4032673 12.7374965,15.3213913 12.7166484,15.251428 L11.2702538,10.5807335 C11.1290146,10.1209818 11.2862157,9.61624783 11.6641647,9.33151363 L15.4581107,6.43979857 C15.5284243,6.38614731 15.5607654,6.27982385 15.5300757,6.18255291 C15.5021793,6.09413554 15.4325693,6.04222732 15.3516983,6.04402261 L10.6774552,6.04402261 Z" id="Star"></path>
            </g>
        </g>
    </g>
</svg>