<?xml version="1.0" encoding="UTF-8"?>
<svg width="29px" height="23px" viewBox="0 0 29 23" version="1.1" xmlns="http://www.w3.org/2000/svg" xmlns:xlink="http://www.w3.org/1999/xlink">
    <!-- Generator: Sketch 53 (72520) - https://sketchapp.com -->
    <desc>Created with Sketch.</desc>
    <g id="Welcome" stroke="none" stroke-width="1" fill="none" fill-rule="evenodd">
        <g id="noun_Airplane_260607" fill="#FFFFFF" fill-rule="nonzero">
            <g id="Group">
                <path d="M9.25816761,0.985306667 L9.40234375,1.45405667 L2.30681818,1.45405667 C1.9383633,1.45405667 1.64772727,1.80645333 1.64772727,2.12072333 C1.64772727,2.43499 2.01121261,2.78739 2.30681818,2.78739 L9.82457386,2.78739 L11.6164773,8.45405667 L9.55681818,8.45405667 L7.44566761,5.70405667 C7.32046011,5.54584 7.12078523,5.45079333 6.92045455,5.45405667 L3.95454545,5.45405667 C3.54363523,5.45472333 3.20441102,5.92173 3.32634943,6.31864 L3.47052557,6.78739 L0.659090909,6.78739 C0.280004886,6.78739 0,7.13978667 0,7.45405667 C0,7.76832667 0.313565795,8.12072333 0.659090909,8.12072333 L3.88245739,8.12072333 L4.91228693,11.4540667 L3.88245739,14.7874 L0.659090909,14.7874 C0.277062045,14.7874 0,15.1398 0,15.4540667 C0,15.7683333 0.313565795,16.1207333 0.659090909,16.1207333 L3.47052557,16.1207333 L3.32634943,16.5894667 C3.20441102,16.9864 3.54363523,17.4532667 3.95454545,17.4540667 L6.92045455,17.4540667 C7.12246591,17.4540667 7.32255602,17.3556667 7.44566761,17.1936333 L9.55681818,14.4540667 L11.6164773,14.4540667 L9.82457386,20.1207333 L2.30681818,20.1207333 C1.92478602,20.1207333 1.64772727,20.4731333 1.64772727,20.7874 C1.64772727,21.1016667 1.96129307,21.4540667 2.30681818,21.4540667 L9.40234375,21.4540667 L9.25816761,21.9124 C9.12833989,22.3117333 9.47075409,22.7887 9.88636364,22.7874 L12.8522727,22.7874 C13.078911,22.7874 13.3018057,22.6609 13.418679,22.4644667 L18.1661932,14.4540667 L25.0454545,14.4540667 C26.2373249,14.4540667 27.1964801,14.2312 27.9083807,13.7144667 C28.620278,13.1977667 29,12.3628667 29,11.4540667 C29,10.46028 28.4596114,9.62586 27.7127131,9.14155667 C26.9658115,8.65725333 26.031448,8.45405667 25.0454545,8.45405667 L18.1661932,8.45405667 L13.418679,0.44364 C13.3018057,0.247223333 13.078911,0.120146667 12.8522727,0.120723333 L9.88636364,0.120723333 C9.53850534,0.120723333 9.25807205,0.476763333 9.2330925,0.77057 C9.22699261,0.842436667 9.23638466,0.91517 9.25816761,0.985306667 Z M10.7926103,1.45405667 L12.4815308,1.45405667 L17.229045,9.46447333 C17.345915,9.66088667 17.5688097,9.78796333 17.7954512,9.78739 L25.0454512,9.78739 C25.839636,9.78739 26.546343,9.97101667 27.0021274,10.2665567 C27.4579085,10.5620967 27.6818149,10.9005333 27.6818149,11.4540667 C27.6818149,12.0390333 27.5272778,12.3546333 27.1463035,12.6311333 C26.7653259,12.9076667 26.072997,13.1207333 25.0454512,13.1207333 L17.7954512,13.1207333 C17.5688097,13.1207333 17.345915,13.2472333 17.229045,13.4436333 L12.4815308,21.4540667 L10.7926103,21.4540667 L13.15092,13.9853 C13.2728551,13.5884 12.9336309,13.1215333 12.522724,13.1207333 L9.22726943,13.1207333 C9.02693545,13.1174 8.82726057,13.2125 8.70205636,13.3707333 L6.5909058,16.1207333 L4.85049386,16.1207333 L6.23046545,11.6519667 C6.26977693,11.5240333 6.26977693,11.3840667 6.23046545,11.2561333 L4.85049386,6.78739 L6.5909058,6.78739 L8.70205636,9.52697333 C8.82516466,9.68898333 9.02525477,9.78819333 9.22726943,9.78739 L12.522724,9.78739 C12.9383302,9.78872333 13.2807444,9.31174 13.15092,8.91239 L10.7926103,1.45405667 Z" id="Shape"></path>
            </g>
        </g>
    </g>
</svg>