<?xml version="1.0" encoding="UTF-8"?>
<svg width="24px" height="24px" viewBox="0 0 24 24" version="1.1" xmlns="http://www.w3.org/2000/svg" xmlns:xlink="http://www.w3.org/1999/xlink">
    <!-- Generator: Sketch 53 (72520) - https://sketchapp.com -->
    <desc>Created with Sketch.</desc>
    <g id="Welcome" stroke="none" stroke-width="1" fill="none" fill-rule="evenodd">
        <g id="Overrides/Icons/Icon-1" stroke="#02ADDA" stroke-width="0.916666667">
            <path d="M15.6811083,9.13865609 C15.0929315,9.14142278 14.5757448,8.74938272 14.3922711,8.1723529 L12.4136388,1.78506493 C12.3493096,1.58565287 12.1813871,1.45833333 12,1.45833333 C11.8186129,1.45833333 11.6506904,1.58565287 11.5879707,1.77997469 L9.60670387,8.1756186 C9.4241016,8.74986592 8.90620211,9.14207923 8.32008463,9.13865609 L1.88050726,9.13852628 C1.7063715,9.13438098 1.54320455,9.25605459 1.48223563,9.44929531 C1.41847335,9.6513896 1.48593299,9.87316772 1.64064421,9.99121684 L6.85554264,13.9659795 C7.31959921,14.3155953 7.51229242,14.9342854 7.33879985,15.4990221 L5.35180728,21.9153256 C5.30627198,22.0679479 5.33281818,22.2350624 5.42106236,22.3606834 C5.50381895,22.4784924 5.62921147,22.5438836 5.76424163,22.5415434 C5.85099567,22.5411144 5.93636858,22.5111357 6.01323806,22.4511368 L11.194394,18.5026799 C11.6743154,18.1386247 12.3256846,18.1386247 12.806417,18.5032965 L17.9910802,22.4544685 C18.0636314,22.5111357 18.1490043,22.5411144 18.2415589,22.5416088 C18.3707885,22.5438836 18.4961811,22.4784924 18.5789376,22.3606834 C18.6671818,22.2350624 18.693728,22.0679479 18.6495743,21.9198703 L16.6608958,15.4980354 C16.4877076,14.9342854 16.6804008,14.3155953 17.142415,13.9675271 L22.3591631,9.99136382 C22.514067,9.87316772 22.5815267,9.6513896 22.5177644,9.44929531 C22.4567955,9.25605459 22.2936285,9.13438098 22.1085852,9.13865609 L15.6811083,9.13865609 Z M15.6811083,9.13865609 L15.6799154,9.13865609 L15.6825861,9.13864831 C15.6820934,9.13865118 15.6816009,9.13865377 15.6811083,9.13865609 Z" id="Star"></path>
        </g>
    </g>
</svg>