<?xml version="1.0" encoding="UTF-8"?>
<svg width="29px" height="21px" viewBox="0 0 29 21" version="1.1" xmlns="http://www.w3.org/2000/svg" xmlns:xlink="http://www.w3.org/1999/xlink">
    <!-- Generator: Sketch 53 (72520) - https://sketchapp.com -->
    <desc>Created with Sketch.</desc>
    <g id="Welcome" stroke="none" stroke-width="1" fill="none" fill-rule="evenodd">
        <g id="noun_Submarine_1942265" fill="#FFFFFF" fill-rule="nonzero">
            <g id="Group">
                <path d="M12,13 C11.4477153,13 11,13.6715729 11,14.5 C11,15.3284271 11.4477153,16 12,16 C12.5522847,16 13,15.3284271 13,14.5 C12.9992838,13.6720183 12.5519878,13.0010743 12,13 Z M12.001,14.0007313 L12,13.9992687 L13,14.0007313 L12.001,14.0007313 Z" id="Shape"></path>
                <path d="M17,13 C16.4477153,13 16,13.6715729 16,14.5 C16,15.3284271 16.4477153,16 17,16 C17.5522847,16 18,15.3284271 18,14.5 C17.9992838,13.6720183 17.5519878,13.0010743 17,13 L17,13 Z M17.001,14.0007313 L17,13.9992687 L18,14.0007313 L17.001,14.0007313 Z" id="Shape"></path>
                <path d="M22.5,13 C21.6715729,13 21,13.6715729 21,14.5 C21,15.3284271 21.6715729,16 22.5,16 C23.3284271,16 24,15.3284271 24,14.5 C23.9989257,13.6720183 23.3279817,13.0010743 22.5,13 Z M22.001,14.0007313 L22,13.9992687 L23,14.0007313 L22.001,14.0007313 Z" id="Shape"></path>
                <path d="M22.4090909,7.875 L19.7727273,7.875 L19.7727273,5.90625 C19.7728323,5.73216965 19.7034263,5.56518915 19.5798,5.44209573 C19.4561737,5.31900231 19.2884703,5.24989546 19.1136364,5.25 L17.1363637,5.25 L17.1363637,2.625 C17.1373078,1.90051598 17.7269252,1.31344 18.4545455,1.3125 L19.1136364,1.3125 C19.4776423,1.3125 19.7727273,1.01868687 19.7727273,0.65625 C19.7727273,0.293813133 19.4776423,0 19.1136364,0 L18.4545455,0 C16.9991169,0.00142892518 15.819617,1.17584482 15.8181819,2.625 L15.8181819,5.25 L13.8409092,5.25 C13.6660752,5.24989546 13.4983718,5.31900231 13.3747456,5.44209573 C13.2511193,5.56518915 13.1817133,5.73216965 13.1818182,5.90625 L13.1818182,7.875 L11.2045455,7.875 C11.1207802,7.87508048 11.037788,7.89095715 10.9599569,7.92179063 L4.64388874,10.4371969 L2.27205125,9.25670156 C2.18051017,9.21118779 2.07959218,9.18749649 1.97727284,9.1875 L0.659091025,9.1875 C0.484257082,9.18739546 0.31655372,9.25650231 0.192927431,9.37959573 C0.0693011423,9.50268915 -0.000104875939,9.66966965 1.18950979e-07,9.84375 L1.18950979e-07,19.03125 C-0.000104875939,19.2053303 0.0693011423,19.3723109 0.192927431,19.4954043 C0.31655372,19.6184977 0.484257082,19.6876045 0.659091025,19.6875 L1.97727284,19.6875 C2.07959218,19.6875035 2.18051017,19.6638122 2.27205125,19.6182984 L4.64388874,18.4378031 L10.9599569,20.9532094 C11.037788,20.9840428 11.1207802,20.9999195 11.2045455,21 L22.4090909,21 C26.0491495,21 29,18.0618687 29,14.4375 C29,10.8131313 26.0491495,7.875 22.4090909,7.875 Z M14,7 L18,7 L18,8 L14,8 L14,7 Z M22.8,20 L11.87506,20 L5.491215,17.2990188 C5.31879117,17.2266417 5.12541064,17.2351771 4.9592875,17.3224969 L2.4963725,18.625 L2,18.625 L2,10.375 L2.4963725,10.375 L4.9592875,11.6775031 C5.12500273,11.7664875 5.31906653,11.7750531 5.491215,11.7009813 L11.87506,9 L22.8,9 C25.6718807,9 28,11.4624339 28,14.5 C28,17.5375661 25.6718807,20 22.8,20 Z" id="Shape"></path>
            </g>
        </g>
    </g>
</svg>