<?xml version="1.0" encoding="UTF-8"?>
<svg width="26px" height="26px" viewBox="0 0 26 26" version="1.1" xmlns="http://www.w3.org/2000/svg" xmlns:xlink="http://www.w3.org/1999/xlink">
    <!-- Generator: Sketch 53 (72520) - https://sketchapp.com -->
    <desc>Created with Sketch.</desc>
    <g id="Welcome" stroke="none" stroke-width="1" fill="none" fill-rule="evenodd">
        <g id="noun_Ruler_2218164" fill="#FFFFFF" fill-rule="nonzero">
            <g id="Group">
                <path d="M5.35036667,21.0894667 C5.23553333,21.0894667 5.12546667,21.0439667 5.044,20.9629333 C4.96253333,20.8814667 4.91703333,20.7714 4.91703333,20.6565667 L4.91226667,12.9974 C4.91226667,12.8219 5.01756667,12.6637333 5.17963333,12.5965667 C5.3417,12.5307 5.52803333,12.5666667 5.65196667,12.6906 L13.3115667,20.3445667 C13.4355,20.4680667 13.4727667,20.6548333 13.4056,20.8164667 C13.3384333,20.9785333 13.1807,21.0842667 13.0052,21.0842667 L5.35036667,21.0894667 L5.35036667,21.0894667 Z M5.77936667,14.0430333 L5.78326667,20.2223667 L11.9587,20.2184667 L5.77936667,14.0430333 Z" id="Shape"></path>
                <path d="M0.450666667,26 C0.211466667,26 0.0173333333,25.8063 0.0173333333,25.5671 L0,0.433766667 C0,0.258266667 0.1053,0.1001 0.267366667,0.0329333333 C0.429433333,-0.0329333333 0.615766667,0.0026 0.7397,0.126966667 L25.8730333,25.2434 C25.9969667,25.3669 26.0342333,25.5536667 25.9670667,25.7153 C25.9003333,25.8773667 25.7421667,25.9831 25.5671,25.9831 L0.450666667,26 L0.450666667,26 Z M0.8671,1.47983333 L0.883566667,25.1329 L24.5206,25.1173 L0.8671,1.47983333 Z" id="Shape"></path>
                <path d="M10.9928,15.4362 C10.8818667,15.4362 10.7713667,15.3937333 10.6864333,15.3096667 C10.517,15.1402333 10.517,14.8663667 10.686,14.6965 L12.5458667,12.8340333 C12.7148667,12.6646 12.9887333,12.6646 13.1586,12.8336 C13.3280333,13.0030333 13.3280333,13.2769 13.1590333,13.4467667 L11.2991667,15.3092333 C11.2146667,15.3937333 11.1041667,15.4362 10.9928,15.4362 Z" id="Path"></path>
                <path d="M10.6530667,13.0667333 C10.5425667,13.0667333 10.4316333,13.0242667 10.3467,12.9402 C10.1772667,12.7707667 10.1768333,12.4969 10.3462667,12.3274667 L11.1917,11.4803 C11.3602667,11.31 11.6345667,11.3104333 11.8048667,11.4794333 C11.9743,11.6488667 11.9747333,11.9227333 11.8053,12.0921667 L10.9598667,12.9393333 C10.8753667,13.0247 10.7644333,13.0667333 10.6530667,13.0667333 Z" id="Path"></path>
                <path d="M8.2849,12.7291667 C8.17396667,12.7291667 8.06346667,12.6867 7.97853333,12.6026333 C7.8091,12.4332 7.8091,12.1593333 7.9781,11.9894667 L9.83753333,10.127 C10.0065333,9.95756667 10.2804,9.95756667 10.4502667,10.1265667 C10.6197,10.296 10.6197,10.5698667 10.4507,10.7397333 L8.59126667,12.6017667 C8.50676667,12.6867 8.39583333,12.7291667 8.2849,12.7291667 Z" id="Path"></path>
                <path d="M7.94516667,10.361 C7.83466667,10.361 7.72373333,10.3185333 7.63923333,10.2344667 C7.4698,10.0654667 7.46936667,9.79116667 7.63836667,9.62173333 L8.4838,8.77413333 C8.65236667,8.60426667 8.92666667,8.60426667 9.09653333,8.77326667 C9.26596667,8.94226667 9.2664,9.21656667 9.0974,9.386 L8.25196667,10.2336 C8.16746667,10.3189667 8.05653333,10.361 7.94516667,10.361 Z" id="Path"></path>
                <path d="M5.57743333,10.0234333 C5.46693333,10.0234333 5.356,9.98096667 5.2715,9.8969 C5.10206667,9.7279 5.10163333,9.4536 5.27063333,9.28416667 L7.12963333,7.4204 C7.29863333,7.2501 7.57293333,7.25053333 7.74236667,7.41953333 C7.9118,7.58853333 7.91223333,7.86283333 7.74323333,8.03226667 L5.88423333,9.89603333 C5.7993,9.98096667 5.68836667,10.0234333 5.57743333,10.0234333 Z" id="Path"></path>
                <path d="M5.23726667,7.65396667 C5.12676667,7.65396667 5.01583333,7.6115 4.9309,7.52743333 C4.76146667,7.358 4.76103333,7.08413333 4.93046667,6.9147 L5.7759,6.06753333 C5.9449,5.89723333 6.2192,5.89766667 6.38906667,6.06666667 C6.5585,6.2361 6.55893333,6.50996667 6.3895,6.6794 L5.54406667,7.52656667 C5.45956667,7.6115 5.3482,7.65396667 5.23726667,7.65396667 Z" id="Path"></path>
                <path d="M2.8691,7.3177 C2.7586,7.3177 2.64766667,7.27523333 2.56273333,7.19116667 C2.3933,7.02173333 2.39286667,6.74786667 2.5623,6.57843333 L4.42216667,4.71466667 C4.59073333,4.54436667 4.86503333,4.54436667 5.03533333,4.7138 C5.20476667,4.88323333 5.2052,5.1571 5.03576667,5.32653333 L3.1759,7.1903 C3.09096667,7.27523333 2.98003333,7.3177 2.8691,7.3177 Z" id="Path"></path>
                <path d="M2.52893333,4.9478 C2.418,4.9478 2.3075,4.90533333 2.22256667,4.82126667 C2.05313333,4.65183333 2.0527,4.37796667 2.22213333,4.20853333 L3.06713333,3.3618 C3.23613333,3.1915 3.51043333,3.19193333 3.6803,3.36093333 C3.84973333,3.53036667 3.85016667,3.80423333 3.68073333,3.97366667 L2.83573333,4.8204 C2.75123333,4.90533333 2.6403,4.9478 2.52893333,4.9478 Z" id="Path"></path>
                <path d="M18.7776333,21.1856667 C18.6667,21.1856667 18.5557667,21.1432 18.4712667,21.0587 C18.3018333,20.8897 18.3018333,20.6154 18.4708333,20.4459667 L19.3162667,19.5996667 C19.4857,19.4302333 19.76,19.4302333 19.929,19.5996667 C20.0984333,19.7686667 20.0984333,20.0429667 19.9294333,20.2124 L19.084,21.0587 C18.9995,21.1432 18.8881333,21.1856667 18.7776333,21.1856667 Z" id="Path"></path>
                <path d="M16.4090333,20.8489667 C16.2985333,20.8489667 16.1876,20.8065 16.1026667,20.7224333 C15.9332333,20.553 15.9328,20.2791333 16.1022333,20.1097 L17.9616667,18.2459333 C18.1306667,18.0756333 18.4049667,18.0760667 18.5748333,18.2450667 C18.7442667,18.4145 18.7447,18.6883667 18.5752667,18.8578 L16.7158333,20.7215667 C16.6313333,20.8069333 16.5204,20.8489667 16.4090333,20.8489667 Z" id="Path"></path>
                <path d="M16.0697333,18.4799333 C15.9592333,18.4799333 15.8483,18.4374667 15.7638,18.3534 C15.5943667,18.1844 15.5939333,17.9101 15.7629333,17.7406667 L16.6079333,16.8935 C16.7765,16.7232 17.0512333,16.7232 17.2206667,16.8926333 C17.3901,17.0616333 17.3905333,17.3359333 17.2215333,17.5053667 L16.3765333,18.3525333 C16.2920333,18.4374667 16.1806667,18.4799333 16.0697333,18.4799333 Z" id="Path"></path>
                <path d="M21.4855333,23.8914 C21.3746,23.8914 21.2641,23.8489333 21.1791667,23.7648667 C21.0097333,23.5954333 21.0097333,23.3215667 21.1787333,23.1517 L22.0241667,22.3054 C22.1931667,22.1355333 22.4674667,22.1359667 22.6369,22.3049667 C22.8063333,22.4744 22.8063333,22.7482667 22.6373333,22.9181333 L21.7919,23.7644333 C21.7074,23.8489333 21.5964667,23.8914 21.4855333,23.8914 Z" id="Path"></path>
                <path d="M19.1169333,23.5547 C19.0064333,23.5547 18.8955,23.5122333 18.8105667,23.4281667 C18.6411333,23.2587333 18.6407,22.9848667 18.8101333,22.8154333 L20.67,20.9516667 C20.839,20.7813667 21.1133,20.7818 21.2831667,20.9508 C21.4526,21.1202333 21.4530333,21.3941 21.2836,21.5635333 L19.4237333,23.4273 C19.3392333,23.5126667 19.2283,23.5547 19.1169333,23.5547 Z" id="Path"></path>
                <path d="M13.7015667,18.1423667 C13.5910667,18.1423667 13.4801333,18.0999 13.3952,18.0158333 C13.2257667,17.8464 13.2253333,17.5725333 13.3947667,17.4031 L15.2537667,15.5402 C15.4223333,15.3699 15.6966333,15.3699 15.8669333,15.5393333 C16.0363667,15.7087667 16.0368,15.9826333 15.8673667,16.1520667 L14.0083667,18.0149667 C13.9238667,18.1003333 13.8125,18.1423667 13.7015667,18.1423667 Z" id="Path"></path>
                <path d="M13.3614,15.7724667 C13.2509,15.7724667 13.1399667,15.73 13.0554667,15.6459333 C12.8860333,15.4769333 12.8856,15.2026333 13.0546,15.0332 L13.8991667,14.1864667 C14.0681667,14.0161667 14.3424667,14.0166 14.5119,14.1856 C14.6813333,14.3546 14.6817667,14.6289 14.5127667,14.7983333 L13.6682,15.6450667 C13.5837,15.7304333 13.4727667,15.7724667 13.3614,15.7724667 Z" id="Path"></path>
            </g>
        </g>
    </g>
</svg>