<?xml version="1.0" encoding="UTF-8"?>
<svg width="670px" height="110px" viewBox="0 0 670 110" version="1.1" xmlns="http://www.w3.org/2000/svg" xmlns:xlink="http://www.w3.org/1999/xlink">
    <!-- Generator: Sketch 53 (72520) - https://sketchapp.com -->
    <desc>Created with Sketch.</desc>
    <defs>
        <polygon id="path-1" points="0 0 128 0 128 37 0 37"></polygon>
    </defs>
    <g id="Welcome" stroke="none" stroke-width="1" fill="none" fill-rule="evenodd">
        <g id="Group-10">
            <g id="Group-9">
                <g id="Group-8">
                    <g id="Group-7">
                        <g id="Group-5" transform="translate(116.315789, 0.000000)" fill="#FFFFFF">
                            <path d="M61.4576884,28.0677966 L85.5764432,28.0677966 L84.6115038,31.1318736 C82.681625,37.2761331 75.217535,42.2889792 67.9946798,42.2889792 C54.9159669,42.2889792 43.232632,42.2889792 28.8389527,42.2889792 C27.4199241,46.7945011 27.0462466,47.9863103 25.6272181,52.4918322 C45.3990156,52.4918322 62.7537344,52.4918322 81.6315439,52.4918322 C88.849669,52.4918322 93.1587856,57.5006519 91.2194466,63.6489378 L89.5355328,69 C61.8502863,69 36.8848444,69 9.94222281,69 C2.80923942,69 -1.45730635,64.0435233 0.458382164,57.9717386 L6.36627092,39.2007439 C8.29614972,33.0685635 15.7413194,28.0677966 22.9499843,28.0677966 L61.4576884,28.0677966 Z" id="Path"></path>
                            <path d="M34.9095368,16.368888 L34.9095368,16.3728814 L10.9473684,16.3728814 L12.7069467,10.9378834 C14.6647191,4.90787102 22.2057687,0 29.500284,0 C57.0347829,0 82.5486673,0 110.842105,0 L109.126033,5.30321621 C107.148925,11.3971228 99.5208629,16.368888 92.1393355,16.368888 C72.846817,16.368888 55.1156825,16.368888 34.9095368,16.368888 L34.9095368,16.368888 Z" id="Path"></path>
                        </g>
                        <g id="Fill-30" transform="translate(214.842105, 0.000000)" fill="#FFFFFF">
                            <path d="M109.473684,69 L91.9355384,69 C86.8427307,69 83.18092,66.7155069 82.0390133,62.8194077 L80.5839254,57.8516735 L50.6775323,57.8516735 L58.4347891,49.3699735 C62.0002363,45.4697207 67.0785895,43.1852275 72.1762154,43.1852275 L76.286116,43.1852275 L69.7189477,20.8096557 L60.029604,31.4013966 L60.0247858,31.4013966 L35.8279264,57.8516735 L31.2843903,62.8194077 C27.7189431,66.7155069 22.6405899,69 17.542964,69 L0,69 L57.9626082,6.13490248 C61.5280554,2.26372502 66.5774996,0 71.6558528,0 L88.755545,0 L109.473684,69" id="Fill-24"></path>
                        </g>
                        <g id="Group-6" fill="#FFFFFF">
                            <path d="M15.0526316,16.3728814 L17.024617,10.2415389 C18.8430659,4.60150264 25.8577683,0 32.6325699,0 C61.1040093,0 86.475929,0 114.947368,0 L113.239274,5.30850435 C111.276885,11.4038976 103.705612,16.3728814 96.3838364,16.3728814 C69.2750341,16.3728814 42.1662319,16.3728814 15.0526316,16.3728814 Z" id="Path"></path>
                            <path d="M97.0367126,24.559322 C104.011408,24.5677604 108.158523,29.5295222 106.287971,35.6262449 C104.257914,42.2292698 101.469003,51.3300523 99.4389464,57.9372963 C97.5683941,64.0297998 90.3520257,69 83.3628303,69 C54.768031,69 28.5899659,69 0,69 L1.72554824,63.3927028 C3.69760336,56.9542262 11.3248166,51.7013406 18.7006894,51.7013406 C37.9620612,51.7013406 56.2180715,51.7013406 76.0739599,51.7013406 L79.0562099,42.0014338 C58.8378114,42.0014338 38.6870815,42.052064 18.5073507,42.0014338 C11.5568231,41.9887762 7.40487366,37.0101376 9.27059248,30.9302917 L11.2281472,24.559322 C39.82778,24.559322 68.4322463,24.559322 97.0367126,24.559322 L97.0367126,24.559322 Z" id="Path"></path>
                        </g>
                        <path d="M435.173147,35.8580715 L426.813127,69 L450.59966,69 L468,0 L450.575706,0 C445.502204,0 440.443074,2.28837125 436.888269,6.19230769 L398.6813,48.1886963 L386.435906,6.19230769 C385.300477,2.28837125 381.649855,0 376.576353,0 L359.142477,0 L333.894737,69 L357.68127,69 L369.802101,35.8580715 L371.478896,41.4440231 L371.378289,41.4440231 L375.704419,56.1087035 L375.872099,56.1087035 L379.74789,69 L404.746507,69 L416.584678,56.1087035 L416.752358,56.1087035 L430.147553,41.4440231 L430.051737,41.4440231 L435.173147,35.8580715" id="Fill-57" fill="#02ADDA"></path>
                    </g>
                </g>
                <polygon id="Path-4" fill="#02ADDA" points="468 69 487.272925 0 670 0 653.152008 69"></polygon>
                <g id="Group-3" transform="translate(505.000000, 16.000000)">
                    <mask id="mask-2" fill="white">
                        <use xlink:href="#path-1"></use>
                    </mask>
                    <g id="Clip-2"></g>
                    <path d="M34.4563452,36.3323308 L27.38375,21.5879699 C30.1445769,20.7348371 32.4378468,19.4273183 34.2635598,17.6654135 C36.0892728,15.9035088 37.2811915,13.7243108 37.839316,11.1278195 C38.6924492,7.15889724 37.7895798,4.31203008 35.1307078,2.58721805 C32.4718358,0.862406015 28.5649566,0 23.4100703,0 L7.80975657,0 L0,36.3323308 L9.29236081,36.3323308 L12.1866351,22.8676692 L18.0876233,22.8676692 L24.0109177,36.3323308 L34.4563452,36.3323308 Z M15.798498,6.06466165 L21.2925215,6.06466165 C24.1864928,6.06466165 26.2506434,6.45413534 27.4849734,7.23308271 C28.7193033,8.01203008 29.1411247,9.31027569 28.7504376,11.1278195 C28.343804,13.0195489 27.315336,14.4383459 25.6650336,15.3842105 C24.0147312,16.3300752 21.7878127,16.8030075 18.984278,16.8030075 L13.4902545,16.8030075 L15.798498,6.06466165 Z M58.1202628,37 C63.7725504,37 68.3559797,35.6090226 71.8705506,32.8270677 C75.3851216,30.0451128 77.776277,25.7052632 79.044017,19.8075188 L83.3017097,0 L74.3484861,0 L69.9353159,20.5308271 C69.1778612,24.0546366 67.9347994,26.5769424 66.2061306,28.0977444 C64.4774618,29.6185464 62.2565784,30.3789474 59.5434803,30.3789474 C56.8756006,30.3789474 55.0268369,29.6185464 53.9971894,28.0977444 C52.9675419,26.5769424 52.8314455,24.0546366 53.5889002,20.5308271 L58.0020704,0 L48.7097096,0 L44.4520169,19.8075188 C43.1842769,25.7052632 43.732311,30.0451128 46.0961192,32.8270677 C48.4599273,35.6090226 52.4679752,37 58.1202628,37 L58.1202628,37 Z M86.0052081,36.3323308 L94.8906042,36.3323308 L97.8805569,22.4225564 C98.191512,20.9759398 98.4578764,19.3160401 98.6796502,17.4428571 C98.9014239,15.5696742 99.0826488,13.7799499 99.2233249,12.0736842 C99.3055675,10.8496241 99.3719189,10.0150376 99.4223791,9.56992481 L99.6936889,9.56992481 L102.472008,17.4706767 L110.6944,36.3323308 L120.190243,36.3323308 L128,0 L119.182431,0 L116.216398,13.7984962 C115.706113,16.1724311 115.259834,19.5107769 114.877562,23.8135338 C114.771399,25.1488722 114.673155,26.1318296 114.582829,26.762406 L114.311519,26.762406 L111.601028,18.8616541 L103.378635,0 L93.8149646,0 L86.0052081,36.3323308 Z" id="Fill-1" fill="#FFFFFF" mask="url(#mask-2)"></path>
                </g>
            </g>
            <text id="naval-tactical-scena" font-family="Assistant-SemiBold, Assistant" font-size="18" font-weight="500" letter-spacing="1.668" fill="#FFFFFF">
                <tspan x="184.196941" y="105">naval tactical scenario generato</tspan>
                <tspan x="478.520941" y="105" letter-spacing="1.766117">r</tspan>
            </text>
        </g>
    </g>
</svg>