<?xml version="1.0" encoding="UTF-8"?>
<svg width="26px" height="24px" viewBox="0 0 26 24" version="1.1" xmlns="http://www.w3.org/2000/svg" xmlns:xlink="http://www.w3.org/1999/xlink">
    <!-- Generator: Sketch 53 (72520) - https://sketchapp.com -->
    <desc>Created with Sketch.</desc>
    <g id="Welcome" stroke="none" stroke-width="1" fill="none" fill-rule="evenodd">
        <g id="noun_Edit-Map_1219729" fill="#FFFFFF" fill-rule="nonzero">
            <path d="M22.5176319,1.2240724 C21.9815866,0.783705413 21.2791854,0.623221422 20.6135567,0.78903102 L15.2863245,2.10032595 L7.98040595,0.0145956593 L7.98040595,0.0145956593 C7.90698217,-0.00486521978 7.82999644,-0.00486521978 7.75657266,0.0145956593 L1.70412055,1.55729558 C0.702585681,1.80946695 -0.00171019653,2.73778856 3.11908635e-06,3.80346666 L3.11908635e-06,17.8235235 C2.02127915e-06,19.100334 1.0003201,20.135871 2.23535156,20.1375734 C2.39387938,20.137287 2.55193536,20.1197057 2.70689368,20.0851216 L7.85505931,18.9435237 L15.1699312,20.7947636 C15.2056213,20.799106 15.241681,20.799106 15.2773711,20.7947636 C15.3117713,20.792651 15.3458205,20.7864391 15.3788422,20.7762512 L15.3788422,20.7762512 L18.5483216,20.0203282 L21.7416765,23.3217061 C22.1614865,23.7559954 22.7310326,24 23.324924,24 C23.9188153,24 24.4883614,23.7559954 24.9081714,23.3217061 L25.3439002,22.8712377 C25.7639794,22.4372266 26,21.8484142 26,21.2344331 C26,20.6204519 25.7639794,20.0316395 25.3439002,19.5976285 L23.3681984,17.5520084 L23.3681984,3.0506291 C23.3732522,2.33853124 23.059199,1.66411483 22.5176319,1.2240724 Z M20.8194834,1.68996777 C21.2207743,1.5914085 21.6436166,1.68894931 21.9663177,1.95451827 C22.2890188,2.22008723 22.4757849,2.62422762 22.4728652,3.0506291 L22.472899,16.6263884 L16.6442464,10.6067733 C16.5911175,10.5517222 16.525427,10.5113992 16.453242,10.4895281 L15.7250377,10.2704647 L15.7250377,2.94264011 L20.8194834,1.68996777 Z M21.7506298,22.0196673 L20.9060322,21.1464992 L23.2398673,18.7337165 L24.0844649,19.6068847 L21.7506298,22.0196673 Z M20.2584079,20.4769674 L13.9403403,13.9451759 L16.2801443,11.5323933 L22.6071652,18.0796117 L20.2584079,20.4769674 Z M15.3848111,11.1343767 L13.5463937,13.034983 L12.7943139,10.3599413 L15.3848111,11.1343767 Z M7.41336162,18.0950387 L2.51887372,19.1810995 C2.12243324,19.2686441 1.7089549,19.1663758 1.39376475,18.9028188 C1.0785746,18.6392619 0.895401781,18.2426201 0.895336271,17.8235235 L0.895336271,3.79421046 C0.888501428,3.15059705 1.31135231,2.5868974 1.91601606,2.43354913 L7.41336162,1.03894841 L7.41336162,18.0950387 Z M8.30869477,18.0950387 L8.30869477,1.06980241 L14.8297046,2.92104231 L14.8297046,10.0020349 L12.2720362,9.22142879 C12.1151157,9.17411208 11.9457243,9.21897757 11.8301415,9.33847029 C11.7145586,9.45796301 11.6711612,9.63308446 11.7169296,9.79531316 L12.9315983,14.1148729 C12.9527537,14.1894998 12.9917574,14.2574123 13.0450071,14.3123385 L14.8356735,16.1635784 L14.8356735,19.7580692 L8.30869477,18.0950387 Z M15.7250377,19.7518984 L15.7250377,17.0984546 L17.8141484,19.2582345 L15.7250377,19.7518984 Z M24.7082137,22.2202183 L24.2724849,22.6706867 C23.7495133,23.2096808 22.9033191,23.2096808 22.3803475,22.6706867 L24.7141826,20.257904 C25.2342382,20.8013204 25.2315701,21.677114 24.7082137,22.2171329 L24.7082137,22.2202183 Z" id="Shape"></path>
        </g>
    </g>
</svg>