<?xml version="1.0" encoding="UTF-8"?>
<svg width="20px" height="20px" viewBox="0 0 20 20" version="1.1" xmlns="http://www.w3.org/2000/svg" xmlns:xlink="http://www.w3.org/1999/xlink">
    <!-- Generator: Sketch 53 (72520) - https://sketchapp.com -->
    <desc>Created with Sketch.</desc>
    <defs>
        <path d="M9.16666667,10.8333333 L3.6785113,10.8333333 L4.75592232,11.9107443 C5.08135923,12.2361813 5.08135923,12.7638187 4.75592232,13.0892557 C4.43048541,13.4146926 3.90284793,13.4146926 3.57741102,13.0892557 L1.07741102,10.5892557 C0.751974106,10.2638187 0.751974106,9.73618126 1.07741102,9.41074435 L3.57741102,6.91074435 C3.90284793,6.58530744 4.43048541,6.58530744 4.75592232,6.91074435 C5.08135923,7.23618126 5.08135923,7.76381874 4.75592232,8.08925565 L3.6785113,9.16666667 L9.16666667,9.16666667 L9.16666667,3.6785113 L8.08925565,4.75592232 C7.76381874,5.08135923 7.23618126,5.08135923 6.91074435,4.75592232 C6.58530744,4.43048541 6.58530744,3.90284793 6.91074435,3.57741102 L9.41074435,1.07741102 C9.73618126,0.751974106 10.2638187,0.751974106 10.5892557,1.07741102 L13.0892557,3.57741102 C13.4146926,3.90284793 13.4146926,4.43048541 13.0892557,4.75592232 C12.7638187,5.08135923 12.2361813,5.08135923 11.9107443,4.75592232 L10.8333333,3.6785113 L10.8333333,9.16666667 L16.3214887,9.16666667 L15.2440777,8.08925565 C14.9186408,7.76381874 14.9186408,7.23618126 15.2440777,6.91074435 C15.5695146,6.58530744 16.0971521,6.58530744 16.422589,6.91074435 L18.922589,9.41074435 C19.2480259,9.73618126 19.2480259,10.2638187 18.922589,10.5892557 L16.422589,13.0892557 C16.0971521,13.4146926 15.5695146,13.4146926 15.2440777,13.0892557 C14.9186408,12.7638187 14.9186408,12.2361813 15.2440777,11.9107443 L16.3214887,10.8333333 L10.8333333,10.8333333 L10.8333333,16.3214887 L11.9107443,15.2440777 C12.2361813,14.9186408 12.7638187,14.9186408 13.0892557,15.2440777 C13.4146926,15.5695146 13.4146926,16.0971521 13.0892557,16.422589 L10.5892557,18.922589 C10.2638187,19.2480259 9.73618126,19.2480259 9.41074435,18.922589 L6.91074435,16.422589 C6.58530744,16.0971521 6.58530744,15.5695146 6.91074435,15.2440777 C7.23618126,14.9186408 7.76381874,14.9186408 8.08925565,15.2440777 L9.16666667,16.3214887 L9.16666667,10.8333333 Z" id="path-1"></path>
    </defs>
    <g id="Welcome" stroke="none" stroke-width="1" fill="none" fill-rule="evenodd">
        <g id="move">
            <mask id="mask-2" fill="white">
                <use xlink:href="#path-1"></use>
            </mask>
            <use id="Combined-Shape" fill="#000000" fill-rule="nonzero" xlink:href="#path-1"></use>
            <g id="COLOR/-red" mask="url(#mask-2)" fill="#DC241F" fill-rule="evenodd">
                <rect id="Rectangle" x="0" y="0" width="20" height="20"></rect>
            </g>
        </g>
    </g>
</svg>