<?xml version="1.0" encoding="UTF-8"?>
<svg width="22px" height="22px" viewBox="0 0 22 22" version="1.1" xmlns="http://www.w3.org/2000/svg" xmlns:xlink="http://www.w3.org/1999/xlink">
    <!-- Generator: Sketch 53 (72520) - https://sketchapp.com -->
    <desc>Created with Sketch.</desc>
    <defs>
        <path d="M18.3333904,10.1532627 C18.3333904,9.64700167 18.7437961,9.23659602 19.2500571,9.23659602 C19.7563181,9.23659602 20.1667237,9.64700167 20.1667237,10.1532627 L20.1667236,11.0062868 C20.1641703,15.4718784 17.2247033,19.4039016 12.9423706,20.6700536 C8.66003788,21.9362057 4.05496209,20.2348682 1.62443664,16.488662 C-0.806088807,12.7424559 -0.483072428,7.84378945 2.41831674,4.44916789 C5.31970592,1.05454633 10.1083089,-0.0273751937 14.1873069,1.79012014 C14.64974,1.9961683 14.8575811,2.53807943 14.651533,3.00051254 C14.4454848,3.46294565 13.9035737,3.67078672 13.4411406,3.46473857 C10.1037785,1.97769693 6.18583064,2.86290545 3.81196677,5.64032309 C1.43810291,8.41774072 1.17381678,12.4257405 3.16242851,15.4908183 C5.15104024,18.5558961 8.91882953,19.9478995 12.4225563,18.9119569 C15.9262831,17.8760143 18.3313015,14.6589044 18.3333904,11.0057627 L18.3333904,10.1532627 Z M10.0833904,11.5427336 L19.5185425,2.10758147 C19.8765231,1.74960087 20.4569244,1.74960087 20.814905,2.10758147 C21.1728856,2.46556207 21.1728856,3.04596331 20.814905,3.40394391 L10.7315716,13.4872772 C10.373591,13.8452578 9.7931898,13.8452578 9.4352092,13.4872772 L6.6852092,10.7372772 C6.3272286,10.3792966 6.3272286,9.79889541 6.6852092,9.44091481 C7.0431898,9.08293421 7.62359103,9.08293421 7.98157163,9.44091481 L10.0833904,11.5427336 Z" id="path-1"></path>
    </defs>
    <g id="Welcome" stroke="none" stroke-width="1" fill="none" fill-rule="evenodd">
        <g id="check-circle">
            <mask id="mask-2" fill="white">
                <use xlink:href="#path-1"></use>
            </mask>
            <use id="Combined-Shape" fill="#000000" fill-rule="nonzero" xlink:href="#path-1"></use>
            <g id="COLOR/-black-Copy" mask="url(#mask-2)" fill="#FFFFFF" fill-rule="evenodd">
                <rect id="Rectangle" x="0" y="0" width="22" height="22"></rect>
            </g>
        </g>
    </g>
</svg>