<?xml version="1.0" encoding="UTF-8"?>
<svg width="25px" height="23px" viewBox="0 0 25 23" version="1.1" xmlns="http://www.w3.org/2000/svg" xmlns:xlink="http://www.w3.org/1999/xlink">
    <!-- Generator: Sketch 53 (72520) - https://sketchapp.com -->
    <desc>Created with Sketch.</desc>
    <g id="Welcome" stroke="none" stroke-width="1" fill="none" fill-rule="evenodd">
        <g id="noun_Ship_1061970" fill="#FFFFFF" fill-rule="nonzero">
            <path d="M12.4475743,0.000647925383 C12.1552637,0.0340219151 11.9359293,0.293888562 11.942254,0.599349521 L11.942254,3.54680353 L6.83585929,3.54680353 C6.8181385,3.54593963 6.80038847,3.54593963 6.78266768,3.54680353 C6.5799344,3.55663482 6.39765425,3.67810618 6.30450641,3.86544984 C6.21135857,4.05279351 6.22149834,4.27753961 6.33110529,4.45500872 C6.44071223,4.63247784 6.63312982,4.73570068 6.83585929,4.72578514 L7.40323648,4.72578514 L7.40323648,9.34039282 L5.24011095,10.0588347 C5.06280083,10.1189244 4.92523238,10.2657039 4.87212818,10.4514561 C4.81902399,10.6372084 4.85716539,10.8382131 4.97415289,10.9891249 C6.32340052,12.7215143 7.10186699,14.9662947 7.11954788,17.3629942 C6.79251224,17.4824725 6.50129625,17.626168 6.24188629,17.7590583 C5.66166624,18.0562935 5.22466751,18.2840736 4.56635053,18.2840736 C3.90803186,18.2840736 3.47103426,18.0562935 2.89081478,17.7590583 C2.31059529,17.4618232 1.5937718,17.105092 0.594710217,17.105092 C0.576989428,17.1042281 0.559239394,17.1042281 0.541518605,17.105092 C0.338785331,17.1149233 0.156505183,17.2363946 0.0633573409,17.4237383 C-0.0297905011,17.611082 -0.0196507268,17.8358281 0.0899562181,18.0132972 C0.199563163,18.1907663 0.391980743,18.2939891 0.594710217,18.2840736 C1.34896613,18.2840736 1.8238597,18.5168328 2.39435974,18.8090888 C2.96485977,19.1013448 3.63758472,19.4630552 4.56635053,19.4630552 C5.49511522,19.4630552 6.16784102,19.1013448 6.73834133,18.8090888 C7.30884165,18.5168328 7.78373494,18.2840736 8.53799085,18.2840736 C9.29224677,18.2840736 9.76714034,18.5168328 10.3376404,18.8090888 C10.9081404,19.1013448 11.5808654,19.4630552 12.5096312,19.4630552 C13.438397,19.4630552 14.1111219,19.1013448 14.681622,18.8090888 C15.252122,18.5168328 15.7270156,18.2840736 16.4812715,18.2840736 C17.2355274,18.2840736 17.710421,18.5168328 18.280921,18.8090888 C18.851421,19.1013448 19.524146,19.4630552 20.4529118,19.4630552 C21.3816776,19.4630552 22.0544026,19.1013448 22.6249026,18.8090888 C23.1954026,18.5168328 23.6702962,18.2840736 24.4245521,18.2840736 C24.6291663,18.2870764 24.8194866,18.1753814 24.9226371,17.991758 C25.0257876,17.8081346 25.0257876,17.5810309 24.9226371,17.3974075 C24.8194866,17.2137842 24.6291663,17.1020892 24.4245521,17.105092 C23.4254905,17.105092 22.7086671,17.4618232 22.1284476,17.7590583 C21.5482281,18.0562935 21.1112305,18.2840736 20.4529118,18.2840736 C19.7945931,18.2840736 19.3575955,18.0562935 18.777376,17.7590583 C18.5179664,17.626168 18.2267501,17.4824725 17.8997145,17.3629942 C17.9173954,14.9662947 18.6958618,12.7215143 20.0451095,10.9891249 C20.1620969,10.8382131 20.2002384,10.6372084 20.1471342,10.4514561 C20.09403,10.2657039 19.9564615,10.1189244 19.7791514,10.0588347 L17.6160259,9.34039282 L17.6160259,6.49425754 C17.6184287,6.33471979 17.5584895,6.1809829 17.4498978,6.06815886 C17.3413062,5.95533482 17.1933364,5.8930595 17.0397834,5.89555595 C16.8893045,5.89799533 16.745922,5.96244393 16.64118,6.07472303 C16.5364379,6.18700212 16.4789169,6.33791385 16.4812715,6.49425754 L16.4812715,8.96275028 L12.6869365,7.70087153 C12.6127562,7.67526405 12.5342836,7.66585661 12.4564396,7.67323915 C12.4142038,7.67759823 12.3725722,7.686867 12.3323258,7.70087153 L8.53799085,8.96275028 L8.53799085,4.72578514 L18.1834031,4.72578514 C18.3880173,4.72878791 18.5783375,4.61709296 18.681488,4.43346958 C18.7846386,4.24984619 18.7846386,4.02274247 18.681488,3.83911909 C18.5783375,3.65549571 18.3880173,3.54380075 18.1834031,3.54680353 L13.0770084,3.54680353 L13.0770084,0.599349521 C13.0794112,0.439811766 13.019472,0.28607488 12.9108803,0.173250841 C12.8022886,0.0604268019 12.6543189,-0.00184852537 12.5007659,0.000647925383 C12.4830451,-0.000215975128 12.4652951,-0.000215975128 12.4475743,0.000647925383 Z M12.5096312,8.87985313 L18.7064539,10.9430709 C17.5298804,12.7196612 16.8340332,14.8493869 16.7738254,17.1235136 C16.678824,17.1167079 16.5818448,17.105092 16.4812715,17.105092 C15.4822099,17.105092 14.7653864,17.4618232 14.1851669,17.7590583 C13.6049474,18.0562935 13.1679498,18.2840736 12.5096312,18.2840736 C11.8513125,18.2840736 11.4143149,18.0562935 10.8340954,17.7590583 C10.2538759,17.4618232 9.53705244,17.105092 8.53799085,17.105092 C8.43741757,17.105092 8.34043834,17.1167079 8.24543699,17.1235136 C8.18522919,14.8493869 7.48938192,12.7196612 6.31280844,10.9430709 L12.5096312,8.87985313 Z M0.541518605,20.6420368 C0.338785331,20.6518681 0.156505183,20.7733394 0.0633573409,20.9606831 C-0.0297905011,21.1480268 -0.0196507268,21.3727729 0.0899562181,21.550242 C0.199563163,21.7277111 0.391980743,21.8309339 0.594710217,21.8210184 C1.34896613,21.8210184 1.8238597,22.0537777 2.39435974,22.3460336 C2.96485977,22.6382896 3.63758472,23 4.56635053,23 C5.49511522,23 6.16784102,22.6382896 6.73834133,22.3460336 C7.30884165,22.0537777 7.78373494,21.8210184 8.53799085,21.8210184 C9.29224677,21.8210184 9.76714034,22.0537777 10.3376404,22.3460336 C10.9081404,22.6382896 11.5808654,23 12.5096312,23 C13.438397,23 14.1111219,22.6382896 14.681622,22.3460336 C15.252122,22.0537777 15.7270156,21.8210184 16.4812715,21.8210184 C17.2355274,21.8210184 17.710421,22.0537777 18.280921,22.3460336 C18.851421,22.6382896 19.524146,23 20.4529118,23 C21.3816776,23 22.0544026,22.6382896 22.6249026,22.3460336 C23.1954026,22.0537777 23.6702962,21.8210184 24.4245521,21.8210184 C24.6291663,21.8240212 24.8194866,21.7123262 24.9226371,21.5287028 C25.0257876,21.3450795 25.0257876,21.1179757 24.9226371,20.9343524 C24.8194866,20.750729 24.6291663,20.639034 24.4245521,20.6420368 C23.4254905,20.6420368 22.7086671,20.998768 22.1284476,21.2960032 C21.5482281,21.5932383 21.1112305,21.8210184 20.4529118,21.8210184 C19.7945931,21.8210184 19.3575955,21.5932383 18.777376,21.2960032 C18.1971566,20.998768 17.4803331,20.6420368 16.4812715,20.6420368 C15.4822099,20.6420368 14.7653864,20.998768 14.1851669,21.2960032 C13.6049474,21.5932383 13.1679498,21.8210184 12.5096312,21.8210184 C11.8513125,21.8210184 11.4143149,21.5932383 10.8340954,21.2960032 C10.2538759,20.998768 9.53705244,20.6420368 8.53799085,20.6420368 C7.53892927,20.6420368 6.82210635,20.998768 6.24188629,21.2960032 C5.66166624,21.5932383 5.22466751,21.8210184 4.56635053,21.8210184 C3.90803186,21.8210184 3.47103426,21.5932383 2.89081478,21.2960032 C2.31059529,20.998768 1.5937718,20.6420368 0.594710217,20.6420368 C0.576989428,20.6411729 0.559239394,20.6411729 0.541518605,20.6420368 Z" id="Shape"></path>
        </g>
    </g>
</svg>