<?xml version="1.0" encoding="UTF-8"?>
<svg width="22px" height="22px" viewBox="0 0 22 22" version="1.1" xmlns="http://www.w3.org/2000/svg" xmlns:xlink="http://www.w3.org/1999/xlink">
    <!-- Generator: Sketch 53 (72520) - https://sketchapp.com -->
    <desc>Created with Sketch.</desc>
    <defs>
        <path d="M11,21.0833333 C5.43112877,21.0833333 0.916666667,16.5688712 0.916666667,11 C0.916666667,5.43112877 5.43112877,0.916666667 11,0.916666667 C16.5688712,0.916666667 21.0833333,5.43112877 21.0833333,11 C21.0833333,16.5688712 16.5688712,21.0833333 11,21.0833333 Z M11,19.25 C15.5563492,19.25 19.25,15.5563492 19.25,11 C19.25,6.44365081 15.5563492,2.75 11,2.75 C6.44365081,2.75 2.75,6.44365081 2.75,11 C2.75,15.5563492 6.44365081,19.25 11,19.25 Z M10.0833333,7.33333333 C10.0833333,6.82707231 10.493739,6.41666667 11,6.41666667 C11.506261,6.41666667 11.9166667,6.82707231 11.9166667,7.33333333 L11.9166667,11 C11.9166667,11.506261 11.506261,11.9166667 11,11.9166667 C10.493739,11.9166667 10.0833333,11.506261 10.0833333,11 L10.0833333,7.33333333 Z M10.3518188,14.3981812 C9.99383818,14.0402006 9.99383818,13.4597994 10.3518188,13.1018188 C10.7097994,12.7438382 11.2902006,12.7438382 11.6481812,13.1018188 C12.0061618,13.4597994 12.0061618,14.0402006 11.6481812,14.3981812 C11.2902006,14.7561618 10.7097994,14.7561618 10.3518188,14.3981812 Z" id="path-1"></path>
    </defs>
    <g id="Welcome" stroke="none" stroke-width="1" fill="none" fill-rule="evenodd">
        <g id="alert-circle">
            <mask id="mask-2" fill="white">
                <use xlink:href="#path-1"></use>
            </mask>
            <use id="Combined-Shape" fill="#000000" fill-rule="nonzero" xlink:href="#path-1"></use>
            <g id="COLOR/-black-Copy" mask="url(#mask-2)" fill="#FFFFFF" fill-rule="evenodd">
                <rect id="Rectangle" x="0" y="0" width="22" height="22"></rect>
            </g>
        </g>
    </g>
</svg>