<?xml version="1.0" encoding="UTF-8"?>
<svg width="21px" height="20px" viewBox="0 0 21 20" version="1.1" xmlns="http://www.w3.org/2000/svg" xmlns:xlink="http://www.w3.org/1999/xlink">
    <!-- Generator: Sketch 53 (72520) - https://sketchapp.com -->
    <desc>Created with Sketch.</desc>
    <g id="Welcome" stroke="none" stroke-width="1" fill="none" fill-rule="evenodd">
        <g id="noun_Network_2200285" fill="#1C9E15" fill-rule="nonzero">
            <g id="Group">
                <path d="M17,10 C17.001731,7.2975671 15.1966157,4.92747133 12.5909112,4.2109166 C9.98520674,3.49436186 7.22202804,4.60820134 5.8417021,6.93152803 C4.46137617,9.25485472 4.80458185,12.2142474 6.68,14.16 C7.0638379,14.557645 7.69735497,14.5688379 8.09499999,14.185 C8.492645,13.8011621 8.50383789,13.167645 8.12,12.77 C6.59193644,11.1959964 6.61672709,8.68493971 8.17556878,7.14141187 C9.73441048,5.59788402 12.2455895,5.59788402 13.8044312,7.14141187 C15.3632729,8.68493971 15.3880636,11.1959964 13.86,12.77 C13.6099141,13.0254449 13.5151034,13.394905 13.6112822,13.7392082 C13.707461,14.0835114 13.9800175,14.3503499 14.3262822,14.4392082 C14.6725469,14.5280665 15.0399141,14.4254449 15.29,14.17 C16.3802387,13.0550317 16.9935546,11.5594015 17,10 Z" id="Shape"></path>
                <path d="M1.42729223,7.10065076 C0.14957249,11.318277 1.78344294,15.8751487 5.45,18.32 C5.90687391,18.5900956 6.49516756,18.456225 6.79018242,18.0150316 C7.08519728,17.5738382 6.98415518,16.9790263 6.56,16.66 C3.62549677,14.7053205 2.3167159,11.0599122 3.33781096,7.68508693 C4.35890602,4.31026161 7.46908437,2.001864 10.995,2.001864 C14.5209156,2.001864 17.631094,4.31026161 18.652189,7.68508693 C19.6732841,11.0599122 18.3645032,14.7053205 15.43,16.66 C15.0058448,16.9790263 14.9048027,17.5738382 15.1998176,18.0150316 C15.4948324,18.456225 16.0831261,18.5900956 16.54,18.32 C20.2050216,15.8761751 21.8392365,11.3219307 20.5641605,7.105434 C19.2890845,2.8889373 15.4050711,0.00341472287 11,1.78305211e-15 C6.5930807,-0.000988945499 2.70501196,2.88302453 1.42729223,7.10065076 Z" id="Shape"></path>
                <path d="M11,8 C10.1030181,8.00915529 9.32185019,8.61441883 9.08898059,9.48069371 C8.856111,10.3469686 9.22850863,11.2623304 10,11.72 L10,19 C10,19.5522847 10.4477153,20 11,20 C11.5522847,20 12,19.5522847 12,19 L12,11.72 C12.7714914,11.2623304 13.143889,10.3469686 12.9110194,9.48069371 C12.6781498,8.61441883 11.8969819,8.00915529 11,8 Z" id="Shape"></path>
            </g>
        </g>
    </g>
</svg>