<?xml version="1.0" encoding="UTF-8"?>
<svg width="18px" height="18px" viewBox="0 0 18 18" version="1.1" xmlns="http://www.w3.org/2000/svg" xmlns:xlink="http://www.w3.org/1999/xlink">
    <!-- Generator: Sketch 53 (72520) - https://sketchapp.com -->
    <desc>Created with Sketch.</desc>
    <defs>
        <path d="M12.75,3.75 L15.75,3.75 C16.1642136,3.75 16.5,4.08578644 16.5,4.5 C16.5,4.91421356 16.1642136,5.25 15.75,5.25 L15,5.25 L15,15 C15,16.2426407 13.9926407,17.25 12.75,17.25 L5.25,17.25 C4.00735931,17.25 3,16.2426407 3,15 L3,5.25 L2.25,5.25 C1.83578644,5.25 1.5,4.91421356 1.5,4.5 C1.5,4.08578644 1.83578644,3.75 2.25,3.75 L5.25,3.75 L5.25,3 C5.25,1.75735931 6.25735931,0.75 7.5,0.75 L10.5,0.75 C11.7426407,0.75 12.75,1.75735931 12.75,3 L12.75,3.75 Z M11.25,3.75 L11.25,3 C11.25,2.58578644 10.9142136,2.25 10.5,2.25 L7.5,2.25 C7.08578644,2.25 6.75,2.58578644 6.75,3 L6.75,3.75 L11.25,3.75 Z M13.5,5.25 L4.5,5.25 L4.5,15 C4.5,15.4142136 4.83578644,15.75 5.25,15.75 L12.75,15.75 C13.1642136,15.75 13.5,15.4142136 13.5,15 L13.5,5.25 Z M6.75,8.25 C6.75,7.83578644 7.08578644,7.5 7.5,7.5 C7.91421356,7.5 8.25,7.83578644 8.25,8.25 L8.25,12.75 C8.25,13.1642136 7.91421356,13.5 7.5,13.5 C7.08578644,13.5 6.75,13.1642136 6.75,12.75 L6.75,8.25 Z M9.75,8.25 C9.75,7.83578644 10.0857864,7.5 10.5,7.5 C10.9142136,7.5 11.25,7.83578644 11.25,8.25 L11.25,12.75 C11.25,13.1642136 10.9142136,13.5 10.5,13.5 C10.0857864,13.5 9.75,13.1642136 9.75,12.75 L9.75,8.25 Z" id="path-1"></path>
    </defs>
    <g id="Welcome" stroke="none" stroke-width="1" fill="none" fill-rule="evenodd">
        <g id="trash-2">
            <mask id="mask-2" fill="white">
                <use xlink:href="#path-1"></use>
            </mask>
            <use id="Combined-Shape" fill="#000000" fill-rule="nonzero" xlink:href="#path-1"></use>
            <g id="COLOR/-black-Copy" mask="url(#mask-2)" fill="#FFFFFF" fill-rule="evenodd">
                <rect id="Rectangle" x="0" y="0" width="18" height="18"></rect>
            </g>
        </g>
    </g>
</svg>