<?xml version="1.0" encoding="UTF-8"?>
<svg width="17px" height="17px" viewBox="0 0 17 17" version="1.1" xmlns="http://www.w3.org/2000/svg" xmlns:xlink="http://www.w3.org/1999/xlink">
    <!-- Generator: Sketch 53 (72520) - https://sketchapp.com -->
    <desc>Created with Sketch.</desc>
    <defs>
        <path d="M8.5,10.625 C7.32639491,10.625 6.375,9.67360509 6.375,8.5 C6.375,7.32639491 7.32639491,6.375 8.5,6.375 C9.67360509,6.375 10.625,7.32639491 10.625,8.5 C10.625,9.67360509 9.67360509,10.625 8.5,10.625 Z M14.1666667,10.625 C12.9930616,10.625 12.0416667,9.67360509 12.0416667,8.5 C12.0416667,7.32639491 12.9930616,6.375 14.1666667,6.375 C15.3402718,6.375 16.2916667,7.32639491 16.2916667,8.5 C16.2916667,9.67360509 15.3402718,10.625 14.1666667,10.625 Z M2.83333333,10.625 C1.65972824,10.625 0.708333333,9.67360509 0.708333333,8.5 C0.708333333,7.32639491 1.65972824,6.375 2.83333333,6.375 C4.00693843,6.375 4.95833333,7.32639491 4.95833333,8.5 C4.95833333,9.67360509 4.00693843,10.625 2.83333333,10.625 Z M2.83333333,9.20833333 C3.22453503,9.20833333 3.54166667,8.8912017 3.54166667,8.5 C3.54166667,8.1087983 3.22453503,7.79166667 2.83333333,7.79166667 C2.44213164,7.79166667 2.125,8.1087983 2.125,8.5 C2.125,8.8912017 2.44213164,9.20833333 2.83333333,9.20833333 Z M14.1666667,9.20833333 C14.5578684,9.20833333 14.875,8.8912017 14.875,8.5 C14.875,8.1087983 14.5578684,7.79166667 14.1666667,7.79166667 C13.775465,7.79166667 13.4583333,8.1087983 13.4583333,8.5 C13.4583333,8.8912017 13.775465,9.20833333 14.1666667,9.20833333 Z M8.5,9.20833333 C8.8912017,9.20833333 9.20833333,8.8912017 9.20833333,8.5 C9.20833333,8.1087983 8.8912017,7.79166667 8.5,7.79166667 C8.1087983,7.79166667 7.79166667,8.1087983 7.79166667,8.5 C7.79166667,8.8912017 8.1087983,9.20833333 8.5,9.20833333 Z" id="path-1"></path>
    </defs>
    <g id="Welcome" stroke="none" stroke-width="1" fill="none" fill-rule="evenodd">
        <g id="more-horizontal">
            <mask id="mask-2" fill="white">
                <use xlink:href="#path-1"></use>
            </mask>
            <use id="Combined-Shape" fill="#000000" fill-rule="nonzero" xlink:href="#path-1"></use>
            <g id="COLOR/-black-Copy" mask="url(#mask-2)" fill="#FFFFFF" fill-rule="evenodd">
                <rect id="Rectangle" x="0" y="0" width="17" height="17"></rect>
            </g>
        </g>
    </g>
</svg>