<?xml version="1.0" encoding="UTF-8"?>
<svg width="26px" height="26px" viewBox="0 0 26 26" version="1.1" xmlns="http://www.w3.org/2000/svg" xmlns:xlink="http://www.w3.org/1999/xlink">
    <!-- Generator: Sketch 53 (72520) - https://sketchapp.com -->
    <desc>Created with Sketch.</desc>
    <g id="Welcome" stroke="none" stroke-width="1" fill="none" fill-rule="evenodd">
        <g id="Group-13-Copy-9" fill="#02ADDA" fill-rule="nonzero">
            <path d="M14.9490359,9.56428571 C14.9490359,10.2651614 15.5172079,10.8333333 16.2180835,10.8333333 C16.9189592,10.8333333 17.4871311,10.2651614 17.4871311,9.56428571 L17.4871311,3.21904762 C17.4871311,2.51817197 16.9189592,1.95 16.2180835,1.95 L9.87284543,1.95 C9.17196979,1.95 8.60379782,2.51817197 8.60379782,3.21904762 C8.60379782,3.91992327 9.17196979,4.48809524 9.87284543,4.48809524 L14.9490359,4.48809524 L14.9490359,9.56428571 Z" id="Shape" transform="translate(13.045464, 6.391667) rotate(-45.000000) translate(-13.045464, -6.391667) "></path>
            <path d="M6.0663998,21.8176104 L21.8192335,6.06477665 C22.3148274,5.56918272 22.3148274,4.76566621 21.8192335,4.27007229 C21.3236396,3.77447837 20.5201231,3.77447837 20.0245292,4.27007229 L4.27169544,20.022906 C3.77610152,20.5184999 3.77610152,21.3220164 4.27169544,21.8176104 C4.76728936,22.3132043 5.57080587,22.3132043 6.0663998,21.8176104 Z" id="Shape" transform="translate(13.045464, 13.043841) rotate(-45.000000) translate(-13.045464, -13.043841) "></path>
            <path d="M11.4951906,17.8487363 L16.403723,12.9402039 C16.9683172,12.3756097 16.9683172,11.4602217 16.403723,10.8956275 C15.8391289,10.3310334 14.9237409,10.3310334 14.3591467,10.8956275 L9.45061429,15.8041599 C8.88602012,16.3687541 8.88602012,17.2841421 9.45061429,17.8487363 C10.0152085,18.4133304 10.9305965,18.4133304 11.4951906,17.8487363 Z" id="Shape-Copy-3" transform="translate(12.927169, 14.372182) rotate(-315.000000) translate(-12.927169, -14.372182) "></path>
        </g>
    </g>
</svg>