<?xml version="1.0" encoding="UTF-8"?>
<svg width="20px" height="20px" viewBox="0 0 20 20" version="1.1" xmlns="http://www.w3.org/2000/svg" xmlns:xlink="http://www.w3.org/1999/xlink">
    <!-- Generator: Sketch 53 (72520) - https://sketchapp.com -->
    <desc>Created with Sketch.</desc>
    <defs>
        <path d="M14.7148148,6.12249277 C14.389431,5.79700273 14.3895172,5.26936525 14.7150072,4.94398148 C15.0404973,4.61859771 15.5681347,4.61868386 15.8935185,4.9441739 C19.1471058,8.19882378 19.1465315,13.4747039 15.8922358,16.7286454 C12.6379401,19.982587 7.36205991,19.982587 4.10776419,16.7286454 C0.853468476,13.4747039 0.852894209,8.19882378 4.10648148,4.9441739 C4.43186525,4.61868386 4.95950273,4.61859771 5.28499277,4.94398148 C5.61048281,5.26936525 5.61056896,5.79700273 5.28518519,6.12249277 C2.68231537,8.72621267 2.68277478,12.9469168 5.28621136,15.55007 C7.88964793,18.1532232 12.1103521,18.1532232 14.7137886,15.55007 C17.3172252,12.9469168 17.3176846,8.72621267 14.7148148,6.12249277 Z M9.17083333,1.66666667 C9.17083333,1.20642938 9.54392938,0.833333333 10.0041667,0.833333333 C10.464404,0.833333333 10.8375,1.20642938 10.8375,1.66666667 L10.8375,10 C10.8375,10.4602373 10.464404,10.8333333 10.0041667,10.8333333 C9.54392938,10.8333333 9.17083333,10.4602373 9.17083333,10 L9.17083333,1.66666667 Z" id="path-1"></path>
    </defs>
    <g id="Welcome" stroke="none" stroke-width="1" fill="none" fill-rule="evenodd">
        <g id="power">
            <mask id="mask-2" fill="white">
                <use xlink:href="#path-1"></use>
            </mask>
            <use id="Combined-Shape" fill="#000000" fill-rule="nonzero" xlink:href="#path-1"></use>
            <g id="COLOR/-red" mask="url(#mask-2)" fill="#DC241F" fill-rule="evenodd">
                <rect id="Rectangle" x="0" y="0" width="20" height="20"></rect>
            </g>
        </g>
    </g>
</svg>