<?xml version="1.0" encoding="UTF-8"?>
<svg width="17px" height="19px" viewBox="0 0 17 19" version="1.1" xmlns="http://www.w3.org/2000/svg" xmlns:xlink="http://www.w3.org/1999/xlink">
    <!-- Generator: Sketch 53 (72520) - https://sketchapp.com -->
    <desc>Created with Sketch.</desc>
    <g id="Welcome" stroke="none" stroke-width="1" fill="none" fill-rule="evenodd">
        <g id="noun_strategy_798468-copy-3" fill="#FFFFFF" fill-rule="nonzero">
            <path d="M16.8081722,6.28028203 L15.0949426,4.26913955 C14.7772505,3.93921347 14.2515567,3.90864427 13.8961038,4.19942684 C13.5406509,4.49020941 13.4787036,5.00150549 13.7548337,5.36543184 L14.1123263,5.78370364 C10.3068858,5.43036901 6.67530783,7.74136845 5.59696946,11.244156 C5.32965639,12.1100284 5.21989619,13.0150592 5.27268654,13.9180397 L5.23361631,13.9371388 C4.59043708,14.2713683 4.11019782,14.8426318 3.89936793,15.5242798 C3.83416657,15.7321798 3.79481297,15.9470007 3.78215723,16.1641019 C3.69964246,17.602392 4.79262129,18.8481155 6.25916263,18.9872708 C7.72570397,19.126426 9.04329758,18.1094338 9.24520994,16.682473 C9.4471223,15.2555121 8.46141458,13.9269908 7.01131181,13.6716604 C6.99020824,13.0158562 7.07862527,12.3610758 7.27308236,11.7330948 C8.12090637,8.9789946 10.9710797,7.17985289 13.9501848,7.48543959 L13.5086912,7.84450396 C13.2682569,8.04033772 13.1529472,8.34670326 13.2061982,8.64819565 C13.2594492,8.94968804 13.4731707,9.20050341 13.766856,9.30616204 C14.0605413,9.41182066 14.3895725,9.35627048 14.6300068,9.1604367 L16.685101,7.48734951 C17.0558175,7.18464959 17.1064692,6.64589146 16.7984046,6.28219195 L16.8081722,6.28028203 Z M7.45247964,15.530521 C7.53097693,15.6922264 7.56575462,15.8737872 7.55296814,16.0551326 C7.54838237,16.1361288 7.53463742,16.2162485 7.51202838,16.2937717 C7.3798466,16.7496212 6.96231572,17.0431016 6.51465706,16.9948191 C6.06699839,16.9465366 5.71381132,16.5699299 5.67098614,16.0952049 C5.62816095,15.6204799 5.90761744,15.1797695 6.33853409,15.0424637 C6.76945074,14.905158 7.23188809,15.109474 7.44317515,15.530521 L7.45247964,15.530521 Z M15.7850276,12.3427636 L14.9917305,13.0060705 L15.7748047,13.6780368 C16.1304997,13.9831559 16.1268381,14.4747503 15.7666264,14.7760435 C15.4064146,15.0773368 14.8260576,15.0742352 14.4703626,14.7691161 L13.6872884,14.1058091 L12.8939913,14.7691161 C12.5337796,15.0704093 11.9534225,15.0673077 11.5977276,14.7621885 C11.2420326,14.4570694 11.2456941,13.965475 11.6059058,13.6641818 L12.4053367,12.9939474 L11.6140842,12.3219811 C11.3839898,12.1246036 11.2956865,11.83824 11.3824373,11.5707607 C11.469188,11.3032814 11.7178133,11.0953228 12.0346584,11.025221 C12.3515034,10.9551192 12.688432,11.0335243 12.9185263,11.2309018 L13.7016005,11.9028681 L14.4948975,11.2395612 C14.8551093,10.9382679 15.4354664,10.9413695 15.7911613,11.2464887 C16.1468563,11.5516078 16.1431948,12.0432022 15.782983,12.3444954 L15.7850276,12.3427636 Z M5.93026428,2.66128471 L6.72308945,1.99739993 L5.94865456,1.32311487 C5.59317118,1.01772989 5.59683056,0.525707257 5.95682801,0.224151557 C6.31682547,-0.0774041438 6.8968373,-0.0742999001 7.25232068,0.231085079 L8.03492902,0.903636761 L8.82775419,0.239751982 C9.09029649,0.0181328426 9.48439448,-0.0474456335 9.82617715,0.0736129549 C10.1679598,0.194671543 10.3900718,0.478510083 10.3888841,0.792700401 C10.3881721,0.998746054 10.290311,1.19598547 10.1171168,1.34044868 L9.3242916,2.00433346 L10.1068999,2.67688514 C10.4623833,2.98227012 10.4587239,3.47429275 10.0987265,3.77584844 C9.73872902,4.07740414 9.15871721,4.0742999 8.80323382,3.76891493 L8.01858211,3.09636325 L7.22575695,3.76024803 C6.96302888,3.98063087 6.56987898,4.04542553 6.22898807,3.92452456 C5.88809717,3.80362359 5.66630538,3.52073261 5.66667035,3.20729961 C5.6659856,3.00289046 5.7607608,2.8065708 5.93026428,2.66128471 Z M4.42784719,10.7725843 C4.25606207,10.9181854 4.02293054,11 3.77982369,11 C3.53671684,11 3.30358532,10.9181854 3.1318002,10.7725843 L2.34681275,10.1012336 L1.56591378,10.758742 C1.3036506,10.9824602 0.907469006,11.0495082 0.563737669,10.928346 C0.220006332,10.8071838 -0.00284038378,10.5219337 2.7353215e-05,10.206781 L2.7353215e-05,10.206781 C0.000421882273,10.000542 0.0983317951,9.80301773 0.271911027,9.65828057 L1.06507543,8.99558129 L0.28008798,8.32077002 C0.0500321478,8.12357334 -0.0382563667,7.83747208 0.0484798661,7.57023781 C0.135216099,7.30300354 0.383799781,7.09523551 0.700591844,7.02519792 C1.01738391,6.95516034 1.3542561,7.03349358 1.58431192,7.23069026 L2.36725513,7.90204097 L3.16041953,7.23934169 C3.42307417,7.01811829 3.81734079,6.95265692 4.15926971,7.07349934 C4.50119863,7.19434175 4.72340564,7.47767344 4.72221748,7.79130271 L4.72221748,7.79130271 C4.7215051,7.99698042 4.62360214,8.19386763 4.45033381,8.33807287 L3.6571694,9.00077215 L4.44011262,9.67212286 C4.61126822,9.81926567 4.70617642,10.0180277 4.70387504,10.2245087 C4.70157366,10.4309898 4.60225206,10.6282008 4.42784719,10.7725843 L4.42784719,10.7725843 Z" id="Shape"></path>
        </g>
    </g>
</svg>