<?xml version="1.0" encoding="UTF-8"?>
<svg width="21px" height="21px" viewBox="0 0 21 21" version="1.1" xmlns="http://www.w3.org/2000/svg" xmlns:xlink="http://www.w3.org/1999/xlink">
    <!-- Generator: Sketch 53 (72520) - https://sketchapp.com -->
    <desc>Created with Sketch.</desc>
    <g id="Welcome" stroke="none" stroke-width="1" fill="none" fill-rule="evenodd">
        <path d="M19.5,15 C18.672,15 18,14.329 18,13.5 C18,12.671 18.672,12 19.5,12 C20.328,12 21,12.671 21,13.5 C21,14.329 20.328,15 19.5,15 L19.5,15 Z M16.2204524,3.53693617 C14.6001693,2.13038298 12.5384713,1.34042553 10.3525429,1.34042553 C5.3648199,1.34042553 1.32160122,5.44123404 1.32160122,10.5 C1.32160122,15.558766 5.3648199,19.6595745 10.3525429,19.6595745 C13.225704,19.6595745 15.8741928,18.2905532 17.5693667,16.0064681 C17.7896335,15.7106809 18.2037353,15.6517021 18.4953686,15.8751064 C18.7870019,16.097617 18.8451524,16.5167234 18.6257666,16.8125106 C16.6821317,19.4290213 13.6450921,21 10.3525429,21 C4.63529603,21 0,16.2986809 0,10.5 C0,4.70131915 4.63529603,0 10.3525429,0 C12.8926605,0 15.2900451,0.932042553 17.1579082,2.58702128 L17.7966821,1.93825532 C18.0724562,1.65944681 18.5182764,1.65944681 18.7931694,1.93825532 C19.0689435,2.21795745 19.0689435,2.67102128 18.7931694,2.94982979 L11.9930906,9.84676596 C12.0715056,10.049617 12.1146779,10.2694468 12.1146779,10.5 C12.1146779,11.4865532 11.3252414,12.287234 10.3525429,12.287234 C9.37984442,12.287234 8.59040796,11.4865532 8.59040796,10.5 C8.59040796,9.51344681 9.37984442,8.71276596 10.3525429,8.71276596 C10.5798583,8.71276596 10.7966009,8.75655319 10.9966033,8.83608511 L13.0873764,6.71553191 C12.3032263,6.13110638 11.3534356,5.80851064 10.3525429,5.80851064 C7.79832829,5.80851064 5.72693864,7.90940426 5.72693864,10.5 C5.72693864,13.0905957 7.79832829,15.1914894 10.3525429,15.1914894 C12.9067576,15.1914894 14.9781472,13.0905957 14.9781472,10.5 C14.9781472,10.1300426 15.2741859,9.82978723 15.6389478,9.82978723 C16.0037098,9.82978723 16.2997484,10.1300426 16.2997484,10.5 C16.2997484,13.8314043 13.6371625,16.5319149 10.3525429,16.5319149 C7.06792335,16.5319149 4.40533741,13.8314043 4.40533741,10.5 C4.40533741,7.16859574 7.06792335,4.46808511 10.3525429,4.46808511 C11.7076247,4.46808511 12.9931022,4.93008511 14.0301186,5.7593617 L16.2204524,3.53693617 Z" id="Fill-1-Copy-14" fill="#42CBD5"></path>
    </g>
</svg>