<?xml version="1.0" encoding="UTF-8"?>
<svg width="6px" height="6px" viewBox="0 0 6 6" version="1.1" xmlns="http://www.w3.org/2000/svg" xmlns:xlink="http://www.w3.org/1999/xlink">
    <!-- Generator: Sketch 53 (72520) - https://sketchapp.com -->
    <desc>Created with Sketch.</desc>
    <g id="Welcome" stroke="none" stroke-width="1" fill="none" fill-rule="evenodd">
        <g id="noun_X_2262986-Copy" fill="#FFFFFF" fill-rule="nonzero">
            <g id="Group">
                <g id="a-link">
                    <g id="a">
                        <path d="M5.85416667,0.854166667 C5.95159505,0.756336806 6.00020616,0.63828125 6,0.5 C6.00020616,0.36171875 5.95159505,0.243663194 5.85416667,0.145833333 C5.75633681,0.0484049479 5.63828125,-0.000206163194 5.5,4.23516474e-22 C5.36171875,-0.000206163194 5.24366319,0.0484049479 5.14583333,0.145833333 L3,2.29166667 L0.854166667,0.145833333 C0.756336806,0.0484049479 0.63828125,-0.000206163194 0.5,4.23516474e-22 C0.36171875,-0.000206163194 0.243663194,0.0484049479 0.145833333,0.145833333 C0.0484049479,0.243663194 -0.000206163194,0.36171875 4.23516474e-22,0.5 C-0.000206163194,0.63828125 0.0484049479,0.756336806 0.145833333,0.854166667 L2.29166667,3 L0.145833333,5.14583333 C0.0484049479,5.24366319 -0.000206163194,5.36171875 4.23516474e-22,5.5 C-0.000206163194,5.63828125 0.0484049479,5.75633681 0.145833333,5.85416667 C0.243663194,5.95159505 0.36171875,6.00020616 0.5,6 C0.63828125,6.00020616 0.756336806,5.95159505 0.854166667,5.85416667 L3,3.70833333 L5.14583333,5.85416667 C5.24366319,5.95159505 5.36171875,6.00020616 5.5,6 C5.63828125,6.00020616 5.75633681,5.95159505 5.85416667,5.85416667 C5.95159505,5.75633681 6.00020616,5.63828125 6,5.5 C6.00020616,5.36171875 5.95159505,5.24366319 5.85416667,5.14583333 L3.70833333,3 L5.85416667,0.854166667 Z" id="Path"></path>
                    </g>
                </g>
            </g>
        </g>
    </g>
</svg>