<?xml version="1.0" encoding="UTF-8"?>
<svg width="19px" height="17px" viewBox="0 0 19 17" version="1.1" xmlns="http://www.w3.org/2000/svg" xmlns:xlink="http://www.w3.org/1999/xlink">
    <!-- Generator: Sketch 53 (72520) - https://sketchapp.com -->
    <desc>Created with Sketch.</desc>
    <defs>
        <path d="M7.82100031,1.73035773 C8.25381708,1.01680091 9.02373052,0.583333333 9.85389535,0.583333333 C10.6840602,0.583333333 11.4539736,1.01680091 11.8867904,1.73035773 L18.5986379,12.9354579 C19.0206259,13.6662449 19.0231454,14.5660698 18.6052564,15.2992085 C18.1873673,16.0323473 17.4118361,16.4886832 16.559312,16.4980057 L3.13977785,16.4979579 C2.29595462,16.4886832 1.52042341,16.0323473 1.10253434,15.2992085 C0.68464527,14.5660698 0.687164782,13.6662449 1.11558364,12.9245244 L7.82100031,1.73035773 Z M2.48030452,13.7272202 C2.33964183,13.9708158 2.338802,14.2707575 2.47809835,14.515137 C2.61739471,14.7595166 2.87590511,14.9116286 3.14847869,14.9146723 L16.5506112,14.9147202 C16.8318856,14.9116286 17.090396,14.7595166 17.2296924,14.515137 C17.3689887,14.2707575 17.3681489,13.9708158 17.233917,13.7381536 L10.5307704,2.54775284 C10.3872548,2.31115586 10.130617,2.16666667 9.85389535,2.16666667 C9.57778047,2.16666667 9.32166142,2.31052295 9.17796599,2.5461979 L2.48030452,13.7272202 Z M9.06222869,6.206339 C9.06222869,5.76911358 9.41666993,5.41467234 9.85389535,5.41467234 C10.2911208,5.41467234 10.645562,5.76911358 10.645562,6.206339 L10.645562,9.37300567 C10.645562,9.8102311 10.2911208,10.1646723 9.85389535,10.1646723 C9.41666993,10.1646723 9.06222869,9.8102311 9.06222869,9.37300567 L9.06222869,6.206339 Z M9.29410248,12.3077985 C8.98493742,11.9986335 8.98493742,11.4973779 9.29410248,11.1882128 C9.60326755,10.8790477 10.1045232,10.8790477 10.4136882,11.1882128 C10.7228533,11.4973779 10.7228533,11.9986335 10.4136882,12.3077985 C10.1045232,12.6169636 9.60326755,12.6169636 9.29410248,12.3077985 Z" id="path-1"></path>
    </defs>
    <g id="Welcome" stroke="none" stroke-width="1" fill="none" fill-rule="evenodd">
        <g id="alert-triangle">
            <mask id="mask-2" fill="white">
                <use xlink:href="#path-1"></use>
            </mask>
            <use id="Combined-Shape" fill="#000000" fill-rule="nonzero" xlink:href="#path-1"></use>
            <g id="COLOR/-black" mask="url(#mask-2)" fill="#FF431E">
                <g transform="translate(0.000000, -1.000000)" id="Rectangle">
                    <rect x="0" y="0" width="19" height="19"></rect>
                </g>
            </g>
        </g>
    </g>
</svg>