<?xml version="1.0" encoding="UTF-8"?>
<svg width="25px" height="25px" viewBox="0 0 25 25" version="1.1" xmlns="http://www.w3.org/2000/svg" xmlns:xlink="http://www.w3.org/1999/xlink">
    <!-- Generator: Sketch 53 (72520) - https://sketchapp.com -->
    <desc>Created with Sketch.</desc>
    <defs>
        <path d="M12.4977756,15.6979167 C10.7718857,15.6979167 9.37277556,14.2988065 9.37277556,12.5729167 C9.37277556,10.8470268 10.7718857,9.44791667 12.4977756,9.44791667 C14.2236654,9.44791667 15.6227756,10.8470268 15.6227756,12.5729167 C15.6227756,14.2988065 14.2236654,15.6979167 12.4977756,15.6979167 Z M16.1782825,8.89322917 C15.7712601,8.48665937 15.7708933,7.82711262 16.1774631,7.42009027 C16.5840329,7.01306791 17.2435796,7.01270104 17.650602,7.41927083 C19.0198096,8.78695604 19.7891505,10.6428492 19.7891505,12.578125 C19.7891505,14.5134008 19.0198096,16.369294 17.650602,17.7369792 C17.2435796,18.143549 16.5840329,18.1431821 16.1774631,17.7361597 C15.7708933,17.3291374 15.7712601,16.6695906 16.1782825,16.2630208 C17.1562879,15.2861028 17.7058172,13.9604648 17.7058172,12.578125 C17.7058172,11.1957852 17.1562879,9.87014717 16.1782825,8.89322917 Z M8.81726863,16.2526042 C9.22429098,16.659174 9.22465785,17.3187207 8.81808806,17.7257431 C8.41151827,18.1327654 7.75197152,18.1331323 7.34494916,17.7265625 C5.97574155,16.3588773 5.20640062,14.5029841 5.20640062,12.5677083 C5.20640062,10.6324326 5.97574155,8.77653938 7.34494916,7.40885417 C7.75197152,7.00228437 8.41151827,7.00265125 8.81808806,7.4096736 C9.22465785,7.81669596 9.22429098,8.47624271 8.81726863,8.8828125 C7.83926319,9.85973051 7.28973396,11.1853685 7.28973396,12.5677083 C7.28973396,13.9500482 7.83926319,15.2756862 8.81726863,16.2526042 Z M19.1256781,5.94479167 C18.7189434,5.53793411 18.719043,4.87838726 19.1259006,4.47165256 C19.5327581,4.06491785 20.192305,4.06501744 20.5990397,4.471875 C25.072166,8.94635247 25.072166,16.1994809 20.5990397,20.6739583 C20.192305,21.0808159 19.5327581,21.0809155 19.1259006,20.6741808 C18.719043,20.2674461 18.7189434,19.6078992 19.1256781,19.2010417 C22.7855088,15.5401056 22.7855088,9.60572777 19.1256781,5.94479167 Z M5.869873,19.2010417 C6.27660771,19.6078992 6.27650812,20.2674461 5.86965056,20.6741808 C5.462793,21.0809155 4.80324616,21.0808159 4.39651145,20.6739583 C-0.0766149275,16.1994809 -0.0766149275,8.94635247 4.39651145,4.471875 C4.80324616,4.06501744 5.462793,4.06491785 5.86965056,4.47165256 C6.27650812,4.87838726 6.27660771,5.53793411 5.869873,5.94479167 C2.21004233,9.60572777 2.21004233,15.5401056 5.869873,19.2010417 Z M12.4977756,13.6145833 C13.0730722,13.6145833 13.5394422,13.1482133 13.5394422,12.5729167 C13.5394422,11.9976201 13.0730722,11.53125 12.4977756,11.53125 C11.9224789,11.53125 11.4561089,11.9976201 11.4561089,12.5729167 C11.4561089,13.1482133 11.9224789,13.6145833 12.4977756,13.6145833 Z" id="path-1"></path>
    </defs>
    <g id="Welcome" stroke="none" stroke-width="1" fill="none" fill-rule="evenodd">
        <g id="radio">
            <mask id="mask-2" fill="white">
                <use xlink:href="#path-1"></use>
            </mask>
            <use id="Combined-Shape" fill="#000000" fill-rule="nonzero" xlink:href="#path-1"></use>
            <g id="COLOR/-black-Copy" mask="url(#mask-2)" fill="#FFFFFF" fill-rule="evenodd">
                <rect id="Rectangle" x="0" y="0" width="25" height="25"></rect>
            </g>
        </g>
    </g>
</svg>