<?xml version="1.0" encoding="UTF-8"?>
<svg width="19px" height="24px" viewBox="0 0 19 24" version="1.1" xmlns="http://www.w3.org/2000/svg" xmlns:xlink="http://www.w3.org/1999/xlink">
    <!-- Generator: Sketch 53 (72520) - https://sketchapp.com -->
    <desc>Created with Sketch.</desc>
    <defs>
        <polygon id="path-1" points="0.000271428571 0.7828 18.2861429 0.7828 18.2861429 19 0.000271428571 19"></polygon>
        <polygon id="path-3" points="0.88335 0 17.30565 0 17.30565 13.7370471 0.88335 13.7370471"></polygon>
    </defs>
    <g id="Welcome" stroke="none" stroke-width="1" fill="none" fill-rule="evenodd">
        <g id="Group-9">
            <g id="Group-3" transform="translate(0.000000, 5.000000)">
                <mask id="mask-2" fill="white">
                    <use xlink:href="#path-1"></use>
                </mask>
                <g id="Clip-2"></g>
                <path d="M17.0785571,18.4654667 L18.2864143,17.2576095 C11.9277476,10.8989429 10.2322238,5.90194286 10.0205095,2.64660952 C10.1897,2.44213333 10.281081,2.1888 10.281081,1.92189524 C10.281081,1.29399048 9.77079524,0.7828 9.14289048,0.7828 C8.51498571,0.7828 8.0047,1.29399048 8.0047,1.92189524 C8.0047,2.19694286 8.10241429,2.44846667 8.26527143,2.64570476 C8.0544619,5.9010381 6.3589381,10.8980381 0.000271428571,17.2576095 L1.20722381,18.4654667 C1.7464619,17.9262286 2.8629381,16.8097524 4.1169381,15.2997048 L8.28879524,15.2997048 L8.28879524,19.000181 L9.99698571,19.000181 L9.99698571,15.2997048 L14.1697476,15.2997048 C15.4228429,16.8097524 16.539319,17.9262286 17.0785571,18.4654667 L17.0785571,18.4654667 Z M5.45327143,13.5915143 C5.71203333,13.2422762 5.96898571,12.8785619 6.22141429,12.5039905 C7.04474762,11.2843714 7.73417619,10.0810381 8.28879524,8.89760952 L8.28879524,13.5915143 L5.45327143,13.5915143 Z M9.99698571,13.5915143 L9.99698571,8.89760952 C10.5525095,10.0810381 11.2410333,11.2843714 12.0643667,12.5039905 C12.3167952,12.8785619 12.5737476,13.2422762 12.8325095,13.5915143 L9.99698571,13.5915143 Z" id="Fill-1" fill="#FFFFFF" mask="url(#mask-2)"></path>
            </g>
            <g id="Group-6">
                <mask id="mask-4" fill="white">
                    <use xlink:href="#path-3"></use>
                </mask>
                <g id="Clip-5"></g>
                <path d="M4.49505,13.7370471 C4.79115,13.2503412 5.04765,12.7834 5.26905,12.3362235 C3.58065,11.2145765 2.58255,9.43575294 2.58255,7.51363529 C2.58255,4.22775294 5.50395,1.55457647 9.09495,1.55457647 C12.68595,1.55457647 15.60735,4.22775294 15.60735,7.51363529 C15.60735,9.43575294 14.60925,11.2145765 12.91995,12.3362235 C13.14135,12.7834 13.39875,13.2503412 13.69485,13.7370471 C15.95925,12.3345765 17.30565,10.0212824 17.30565,7.51363529 C17.30565,3.37045882 13.62285,-0.000247058824 9.09495,-0.000247058824 C4.56705,-0.000247058824 0.88335,3.37045882 0.88335,7.51363529 C0.88335,10.0204588 2.22975,12.3345765 4.49505,13.7370471" id="Fill-4" fill="#FFFFFF" mask="url(#mask-4)"></path>
            </g>
            <path d="M5.76498084,7.56935398 C5.76498084,5.93945542 7.21678975,4.61281367 9.00046742,4.61281367 C10.7841451,4.61281367 12.2350192,5.93945542 12.2350192,7.56935398 C12.2350192,8.10581954 12.0760961,8.62434597 11.7825559,9.07624132 C11.8835187,9.65541911 12.0480509,10.2969568 12.3004581,11 C13.3811349,10.1303791 14,8.88574479 14,7.56935398 C14,5.05018687 11.7573151,3 9.00046742,3 C6.24361971,3 4,5.05018687 4,7.56935398 C4,8.88574479 4.61793026,10.1303791 5.69954193,11 C5.95194914,10.2969568 6.11648126,9.65541911 6.21744414,9.07624132 C5.92483874,8.62434597 5.76498084,8.10581954 5.76498084,7.56935398" id="Fill-7" fill="#FFFFFF"></path>
        </g>
    </g>
</svg>