<?xml version="1.0" encoding="UTF-8"?>
<svg width="23px" height="16px" viewBox="0 0 23 16" version="1.1" xmlns="http://www.w3.org/2000/svg" xmlns:xlink="http://www.w3.org/1999/xlink">
    <!-- Generator: Sketch 53 (72520) - https://sketchapp.com -->
    <desc>Created with Sketch.</desc>
    <g id="Welcome" stroke="none" stroke-width="1" fill="none" fill-rule="evenodd">
        <g id="noun_Gauge_475383" fill="#FFFFFF" fill-rule="nonzero">
            <g id="Group">
                <path d="M14.9575808,11.8401831 L8.87715342,7.19409445 C8.16219032,6.58278064 7.07607762,7.38532461 7.56981645,8.16036464 L11.1812679,14.6310538 C11.3247115,14.8565341 11.4935183,15.0659273 11.6834612,15.2553411 C13.6922342,17.2592361 17.2011052,14.6658229 15.5107825,12.4265877 C15.3509937,12.2151188 15.1655598,12.0181803 14.9575808,11.8401831 M23,10.5879758 L23,10.5965384 C22.9994364,11.0622889 22.5792511,11.4354083 22.0736761,11.4354083 L19.3629034,11.4354083 C18.8443649,11.4354083 18.4233342,11.0493154 18.4216434,10.5718886 L18.4213615,10.5469794 C18.4196706,10.0685148 18.8401377,9.67982713 19.3598035,9.67982713 L20.9762908,9.67982713 C20.7809935,7.94137108 20.0313672,6.35237033 18.8939643,5.06435602 L17.7900973,6.08096362 C17.4192296,6.42242753 16.8124832,6.42242753 16.4416154,6.08096362 L16.4114613,6.05320021 C16.0318573,5.70343322 16.0318573,5.13155904 16.4114613,4.78179205 L17.4992648,3.78023379 C16.1003382,2.73326807 14.3747886,2.0428156 12.4863504,1.86326165 L12.4863504,3.32045108 C12.4863504,3.81578132 12.0503835,4.21718304 11.5123998,4.21718304 L11.484782,4.21718304 C10.9484892,4.21718304 10.5136496,3.8168192 10.5136496,3.32330525 L10.5136496,1.86326165 C8.62521137,2.0428156 6.89966182,2.73326807 5.50073517,3.78049325 L6.58825693,4.78179205 C6.96814271,5.13155904 6.96814271,5.70369271 6.58853873,6.05320021 L6.57444801,6.06617376 C6.19484402,6.41568127 5.57344329,6.41568127 5.19355747,6.06617376 L4.10603572,5.06461551 C2.96891465,6.35262981 2.21900655,7.94137108 2.02399098,9.67982713 L3.63709657,9.67982713 C4.15845321,9.67982713 4.58032935,10.0698121 4.57863847,10.5498336 L4.57835664,10.5744833 C4.57666576,11.0506127 4.15704412,11.4354083 3.63991473,11.4354083 L0.926323914,11.4354083 C0.42074889,11.4354083 0.000563627778,11.0622889 0,10.5965384 L0,10.5879758 C0,4.74961765 5.1588943,0 11.5,0 C17.8411057,0 23,4.74961765 23,10.5879758" id="Shape"></path>
            </g>
        </g>
    </g>
</svg>