<?xml version="1.0" encoding="UTF-8"?>
<svg width="21px" height="21px" viewBox="0 0 21 21" version="1.1" xmlns="http://www.w3.org/2000/svg" xmlns:xlink="http://www.w3.org/1999/xlink">
    <!-- Generator: Sketch 53 (72520) - https://sketchapp.com -->
    <desc>Created with Sketch.</desc>
    <defs>
        <path d="M16.2625631,17.5 L12.5062816,13.7437184 C12.1645728,13.4020097 12.1645728,12.8479903 12.5062816,12.5062816 C12.8479903,12.1645728 13.4020097,12.1645728 13.7437184,12.5062816 L17.5,16.2625631 L17.5,14 C17.5,13.5167508 17.8917508,13.125 18.375,13.125 C18.8582492,13.125 19.25,13.5167508 19.25,14 L19.25,18.375 C19.25,18.8582492 18.8582492,19.25 18.375,19.25 L14,19.25 C13.5167508,19.25 13.125,18.8582492 13.125,18.375 C13.125,17.8917508 13.5167508,17.5 14,17.5 L16.2625631,17.5 Z M17.5,4.73743687 L4.11871843,18.1187184 C3.77700968,18.4604272 3.22299032,18.4604272 2.88128157,18.1187184 C2.53957281,17.7770097 2.53957281,17.2229903 2.88128157,16.8812816 L16.2625631,3.5 L14,3.5 C13.5167508,3.5 13.125,3.10824916 13.125,2.625 C13.125,2.14175084 13.5167508,1.75 14,1.75 L18.375,1.75 C18.8582492,1.75 19.25,2.14175084 19.25,2.625 L19.25,7 C19.25,7.48324916 18.8582492,7.875 18.375,7.875 C17.8917508,7.875 17.5,7.48324916 17.5,7 L17.5,4.73743687 Z M2.88128157,4.11871843 C2.53957281,3.77700968 2.53957281,3.22299032 2.88128157,2.88128157 C3.22299032,2.53957281 3.77700968,2.53957281 4.11871843,2.88128157 L8.49371843,7.25628157 C8.83542719,7.59799032 8.83542719,8.15200968 8.49371843,8.49371843 C8.15200968,8.83542719 7.59799032,8.83542719 7.25628157,8.49371843 L2.88128157,4.11871843 Z" id="path-1"></path>
    </defs>
    <g id="Welcome" stroke="none" stroke-width="1" fill="none" fill-rule="evenodd">
        <g id="shuffle">
            <mask id="mask-2" fill="white">
                <use xlink:href="#path-1"></use>
            </mask>
            <use id="Combined-Shape" fill="#000000" fill-rule="nonzero" xlink:href="#path-1"></use>
            <g id="COLOR/-black-Copy" mask="url(#mask-2)" fill="#FFFFFF" fill-rule="evenodd">
                <rect id="Rectangle" x="0" y="0" width="21" height="21"></rect>
            </g>
        </g>
    </g>
</svg>