<?xml version="1.0" encoding="UTF-8"?>
<svg width="21px" height="19px" viewBox="0 0 21 19" version="1.1" xmlns="http://www.w3.org/2000/svg" xmlns:xlink="http://www.w3.org/1999/xlink">
    <!-- Generator: Sketch 53 (72520) - https://sketchapp.com -->
    <desc>Created with Sketch.</desc>
    <g id="Welcome" stroke="none" stroke-width="1" fill="none" fill-rule="evenodd">
        <g id="noun_Radar_1652525" fill="#FFFFFF" fill-rule="nonzero">
            <path d="M17.227877,16.2188196 C17.8740738,15.6104713 18.439496,14.9260796 18.8702938,14.1909921 C19.1395425,13.7347309 18.9779933,13.1517305 18.4933457,12.898252 C18.0086981,12.6447736 17.3894262,12.7968607 17.1201776,13.2531219 C14.9123386,16.9032114 9.98508819,18.1959514 6.10790756,16.1174282 C2.23072693,14.038905 0.884483651,9.4002496 3.06539776,5.75016009 C5.24631186,2.10007057 10.2004871,0.807330539 14.0776678,2.88585373 C14.4007661,3.06328864 14.7238645,3.26607139 15.0469629,3.49420198 L13.5930202,4.86298555 C10.8736088,3.0379408 7.07720272,3.64628905 5.1386124,6.20642128 C3.20002209,8.7665535 3.84621886,12.3405995 6.56563027,14.1656442 C9.28504169,15.990689 13.0814477,15.3823407 15.020038,12.8222085 C15.5585354,12.1124689 15.9354835,11.27599 16.0701078,10.3888155 C16.1508824,9.85651079 15.7470094,9.4002496 15.2085121,9.32420607 C14.6700148,9.24816254 14.1584423,9.60303235 14.0776678,10.1099892 C13.7276445,12.1885124 11.6813547,13.6079917 9.47351575,13.2784697 C7.26567678,12.9489477 5.75788431,11.0225116 6.10790756,8.94398841 C6.45793081,6.86546521 8.50422059,5.44598596 10.7120596,5.77550793 C11.223632,5.85155146 11.7082796,6.00363852 12.1390774,6.25711696 L10.6043601,7.70194406 C9.52736548,7.42311778 8.42344599,8.03146603 8.12727247,9.04537978 C7.83109895,10.0592935 8.47729573,11.0985551 9.55429035,11.3773814 C10.631285,11.6562077 11.7352045,11.0478594 12.031378,10.0339457 C12.1121526,9.70442372 12.1121526,9.37490175 12.031378,9.04537978 L17.9548484,3.49420198 C18.3317965,3.11398433 18.3048716,2.50563608 17.9009987,2.15076626 C17.5240505,1.82124429 16.9047786,1.82124429 16.5278305,2.15076626 L16.4739808,2.15076626 C12.1660023,-1.16980128 5.81173404,-0.586800872 2.28457666,3.49420198 C-1.24258072,7.57520484 -0.623308818,13.5319481 3.71159453,16.8525157 C7.72339949,19.9449526 13.5660953,19.6661264 17.227877,16.2188196 Z" id="Path"></path>
            <circle id="Oval" transform="translate(18.808055, 9.496902) rotate(-45.000000) translate(-18.808055, -9.496902) " cx="18.808055" cy="9.4969025" r="1.45484812"></circle>
        </g>
    </g>
</svg>