<?xml version="1.0" encoding="UTF-8"?>
<svg width="20px" height="20px" viewBox="0 0 20 20" version="1.1" xmlns="http://www.w3.org/2000/svg" xmlns:xlink="http://www.w3.org/1999/xlink">
    <!-- Generator: Sketch 53 (72520) - https://sketchapp.com -->
    <desc>Created with Sketch.</desc>
    <g id="Welcome" stroke="none" stroke-width="1" fill="none" fill-rule="evenodd">
        <g id="noun_Crosshair_792048-Copy-8" fill="#FFFFFF">
            <g id="Shape">
                <path d="M20,9 L17.9,9 C17.4,5.4 14.6,2.5 11,2.1 L11,0 L9,0 L9,2.1 C5.4,2.5 2.5,5.4 2.1,9 L0,9 L0,11 L2.1,11 C2.6,14.6 5.4,17.5 9,17.9 L9,20 L11,20 L11,17.9 C14.6,17.4 17.5,14.6 17.9,11 L20,11 L20,9 Z M10.968523,15.7142857 L10.968523,13.874092 L9.031477,13.874092 L9.031477,15.7142857 C6.61016949,15.3268765 4.67312349,13.3898305 4.28571429,10.968523 L6.12590799,10.968523 L6.12590799,9.031477 L4.28571429,9.031477 C4.67312349,6.61016949 6.61016949,4.67312349 9.031477,4.28571429 L9.031477,6.12590799 L10.968523,6.12590799 L10.968523,4.28571429 C13.3898305,4.67312349 15.3268765,6.61016949 15.7142857,9.031477 L13.874092,9.031477 L13.874092,10.968523 L15.7142857,10.968523 C15.3268765,13.3898305 13.3898305,15.3268765 10.968523,15.7142857 Z" fill-rule="nonzero"></path>
            </g>
        </g>
    </g>
</svg>