<?xml version="1.0" encoding="UTF-8"?>
<svg width="20px" height="21px" viewBox="0 0 20 21" version="1.1" xmlns="http://www.w3.org/2000/svg" xmlns:xlink="http://www.w3.org/1999/xlink">
    <!-- Generator: Sketch 53 (72520) - https://sketchapp.com -->
    <desc>Created with Sketch.</desc>
    <g id="Welcome" stroke="none" stroke-width="1" fill="none" fill-rule="evenodd">
        <g id="noun_profile_1956605" fill="#FFFFFF" fill-rule="nonzero">
            <path d="M18.3333333,19.8947369 C18.6401582,19.8947369 18.8888889,20.1421584 18.8888889,20.4473684 C18.8888889,20.7525784 18.6401582,21 18.3333333,21 L0.555555547,21 C0.248730691,21 0,20.7525784 0,20.4473684 C-0.000224318095,17.7076068 1.2018763,15.1042517 3.29139055,13.3192976 C5.3809048,11.5343434 8.14961981,10.7456546 10.8722222,11.1598421 C11.1658479,11.2152591 11.3627845,11.4918157 11.3179244,11.7857385 C11.2730644,12.0796614 11.0024851,12.2856124 10.7055555,12.2518421 C8.39864328,11.9003345 6.04926515,12.5272181 4.22890013,13.9800052 C2.40853511,15.4327924 1.28401973,17.5783352 1.12888891,19.8947369 L18.3333333,19.8947369 Z M13.8888889,14.3684211 C13.582064,14.3684211 13.3333333,14.1209995 13.3333333,13.8157895 C13.3333333,13.5105795 13.582064,13.2631579 13.8888889,13.2631579 L19.4444444,13.2631579 C19.7512693,13.2631579 20,13.5105795 20,13.8157895 C20,14.1209995 19.7512693,14.3684211 19.4444444,14.3684211 L13.8888889,14.3684211 L13.8888889,14.3684211 Z M13.8888889,11.0526316 C13.582064,11.0526316 13.3333333,10.80521 13.3333333,10.5 C13.3333333,10.19479 13.582064,9.94736843 13.8888889,9.94736843 L19.4444444,9.94736843 C19.7512693,9.94736843 20,10.19479 20,10.5 C20,10.80521 19.7512693,11.0526316 19.4444444,11.0526316 L13.8888889,11.0526316 L13.8888889,11.0526316 Z M13.8888889,17.6842105 C13.582064,17.6842105 13.3333333,17.436789 13.3333333,17.131579 C13.3333333,16.826369 13.582064,16.5789474 13.8888889,16.5789474 L19.4444444,16.5789474 C19.7512693,16.5789474 20,16.826369 20,17.131579 C20,17.436789 19.7512693,17.6842105 19.4444444,17.6842105 L13.8888889,17.6842105 L13.8888889,17.6842105 Z M9.44444445,9.94736843 C7.65802367,9.94750695 6.00724321,8.99955839 5.11399262,7.46063825 C4.22074203,5.92171811 4.22074203,4.02565032 5.11399262,2.48673018 C6.00724321,0.94781004 7.65802367,-0.000138520723 9.44444445,0 C12.205716,0.000214111554 14.4440547,2.22694567 14.4440547,4.97368421 C14.4440547,7.72042276 12.205716,9.94715432 9.44444445,9.94736843 L9.44444445,9.94736843 Z M9.44444445,8.84210526 C11.5922185,8.84210526 13.3333333,7.11015416 13.3333333,4.9736842 C13.3333333,2.83721424 11.5922185,1.10526314 9.44444445,1.10526314 C7.29667042,1.10526314 5.55555556,2.83721424 5.55555556,4.9736842 C5.55555556,7.11015416 7.29667042,8.84210526 9.44444445,8.84210526 Z" id="Shape"></path>
        </g>
    </g>
</svg>