<?xml version="1.0" encoding="UTF-8"?>
<svg width="25px" height="16px" viewBox="0 0 25 16" version="1.1" xmlns="http://www.w3.org/2000/svg" xmlns:xlink="http://www.w3.org/1999/xlink">
    <!-- Generator: Sketch 53 (72520) - https://sketchapp.com -->
    <desc>Created with Sketch.</desc>
    <g id="Welcome" stroke="none" stroke-width="1" fill="none" fill-rule="evenodd">
        <g id="noun_Loop_1940247" fill="#02ADDA" fill-rule="nonzero">
            <path d="M22.8684211,13.2287582 L21.2368421,13.2287582 L23.0263158,11.4509804 C25.6578947,8.83660131 25.6578947,4.5751634 23.0263158,1.96078431 C20.3947368,-0.653594771 16.1052632,-0.653594771 13.4736842,1.96078431 C11.8157895,3.60784314 11.1315789,5.90849673 11.6578947,8.15686275 L11.6842105,8.23529412 C12.0526316,9.88235294 11.5526316,11.6078431 10.3157895,12.8366013 C9.36842105,13.7777778 8.10526316,14.3006536 6.76315789,14.3006536 C5.42105263,14.3006536 4.15789474,13.7777778 3.21052632,12.8366013 C2.23684211,11.8954248 1.73684211,10.6405229 1.73684211,9.30718954 C1.73684211,7.97385621 2.26315789,6.71895425 3.21052632,5.77777778 L5,4 L5,5.62091503 C5,6.09150327 5.39473684,6.48366013 5.86842105,6.48366013 C6.34210526,6.48366013 6.73684211,6.09150327 6.73684211,5.62091503 L6.73684211,1.90849673 C6.73684211,1.4379085 6.34210526,1.04575163 5.86842105,1.04575163 L2.13157895,1.04575163 C1.65789474,1.04575163 1.26315789,1.4379085 1.26315789,1.90849673 C1.26315789,2.37908497 1.65789474,2.77124183 2.13157895,2.77124183 L3.76315789,2.77124183 L1.97368421,4.54901961 C-0.657894737,7.16339869 -0.657894737,11.4248366 1.97368421,14.0392157 C3.28947368,15.3464052 5.02631579,16 6.76315789,16 C8.5,16 10.2368421,15.3464052 11.5526316,14.0392157 C13.2105263,12.3921569 13.8947368,10.0915033 13.3684211,7.84313725 L13.3421053,7.76470588 C12.9736842,6.09150327 13.4736842,4.36601307 14.6842105,3.1372549 C15.6315789,2.19607843 16.8947368,1.67320261 18.2368421,1.67320261 C19.5789474,1.67320261 20.8421053,2.19607843 21.7894737,3.1372549 C23.7368421,5.07189542 23.7368421,8.26143791 21.7894737,10.1960784 L20,11.9738562 L20,10.3529412 C20,9.88235294 19.6052632,9.49019608 19.1315789,9.49019608 C18.6578947,9.49019608 18.2894737,9.90849673 18.2894737,10.379085 L18.2894737,14.0653595 C18.2894737,14.5359477 18.6842105,14.9281046 19.1578947,14.9281046 L22.8684211,14.9281046 C23.3421053,14.9281046 23.7368421,14.5359477 23.7368421,14.0653595 C23.7368421,13.5947712 23.3421053,13.2287582 22.8684211,13.2287582 Z" id="Path"></path>
        </g>
    </g>
</svg>