<?xml version="1.0" encoding="UTF-8"?>
<svg width="24px" height="25px" viewBox="0 0 24 25" version="1.1" xmlns="http://www.w3.org/2000/svg" xmlns:xlink="http://www.w3.org/1999/xlink">
    <!-- Generator: Sketch 53 (72520) - https://sketchapp.com -->
    <desc>Created with Sketch.</desc>
    <defs>
        <polygon id="path-1" points="0 1.19412 22.8127993 1.19412 22.8127993 24 0 24"></polygon>
    </defs>
    <g id="Welcome" stroke="none" stroke-width="1" fill="none" fill-rule="evenodd">
        <g id="Group-10">
            <g id="Group-3">
                <mask id="mask-2" fill="white">
                    <use xlink:href="#path-1"></use>
                </mask>
                <g id="Clip-2"></g>
                <path d="M1.43112,11.52012 L3.95952,14.04852 L7.11072,10.89732 L3.31752,9.63372 L1.43112,11.52012 Z M8.28072,15.12012 C8.43072,15.12012 8.57472,15.18372 8.69592,15.30372 C8.94072,15.54852 8.94072,15.89052 8.69592,16.13532 L7.45752,17.37252 L9.09072,19.23732 L20.84472,7.48332 L21.59112,2.40492 L16.63392,3.15612 L4.91112,14.88012 L6.59952,16.56972 L7.86432,15.30372 C7.98432,15.18372 8.12832,15.12012 8.28072,15.12012 L8.28072,15.12012 Z M9.95112,20.04012 L12.47952,22.56852 L14.36712,20.68092 L13.10232,16.88892 L9.95112,20.04012 Z M12.47952,24.00012 C12.32832,24.00012 12.18432,23.93532 12.06432,23.81652 L0.18312,11.93532 C-0.06168,11.69052 -0.06168,11.34852 0.18312,11.10372 L2.71392,8.45412 C2.74872,8.42052 2.89032,8.35332 3.09912,8.35332 C3.17712,8.35332 3.25632,8.36292 3.33312,8.38212 L8.07672,10.05132 L15.90432,2.22372 C16.02192,2.10732 16.12872,2.04012 16.19952,2.04012 C16.19952,2.04012 22.18152,1.19412 22.18872,1.19412 C22.41312,1.19412 22.58592,1.28892 22.70592,1.43412 C22.79712,1.54452 22.81872,1.64412 22.81152,1.68252 L21.96552,7.71732 C21.95952,7.87092 21.89232,7.97892 21.77592,8.09532 L13.95552,15.91572 L15.53472,20.78172 L15.58032,20.85132 C15.64392,20.94852 15.57552,21.13572 15.41592,21.29532 L12.89472,23.81652 C12.77472,23.93652 12.63072,24.00012 12.47952,24.00012 L12.47952,24.00012 Z" id="Fill-1" fill="#FFFFFF" mask="url(#mask-2)"></path>
            </g>
            <path d="M0.63344607,18 C0.448170624,18 0.305378719,17.8719906 0.218051439,17.763946 C-0.0651721733,17.4762184 -0.0651721733,17.141515 0.175567897,16.9007634 L1.00163677,16.0786847 C1.0535611,16.0481503 1.1987132,16 1.34622549,16 C1.47131592,16 1.65541127,16.0340575 1.81826485,16.1972989 C1.93745479,16.3147387 2,16.4556665 2,16.604815 C2,16.7527892 1.93745479,16.8925426 1.81944495,17.0099824 L0.993376078,17.8320611 C0.884807026,17.9401057 0.757356401,18 0.63344607,18" id="Fill-4" fill="#FFFFFF"></path>
            <path d="M0.525654316,24 C0.39295727,24 0.265525979,23.9431579 0.160210863,23.8389474 C-0.0535788228,23.6242105 -0.0535788228,23.3231579 0.161264014,23.1084211 L3.11008727,20.1621053 C3.21540238,20.0557895 3.34178052,20 3.47447757,20 C3.60717462,20 3.73355276,20.0557895 3.83886787,20.1621053 C4.05371071,20.3768421 4.05371071,20.6768421 3.83886787,20.8915789 L0.89109777,23.8389474 C0.785782653,23.9431579 0.658351363,24 0.525654316,24" id="Fill-6" fill="#FFFFFF"></path>
            <path d="M6.55479112,24 C6.41470358,24 6.28128688,23.9364706 6.17010629,23.82 C5.9432979,23.58 5.9432979,23.2435294 6.17010629,23.0035294 L6.94837039,22.18 C7.05621556,22.0647059 7.2174274,22 7.3886455,22 C7.56097541,22 7.72107545,22.0658824 7.83003243,22.18 C8.05684082,22.42 8.05684082,22.7552941 7.82892062,22.9952941 L6.96727109,23.7929412 C6.82940716,23.9364706 6.69487866,24 6.55479112,24" id="Fill-8" fill="#FFFFFF"></path>
        </g>
    </g>
</svg>