<?xml version="1.0" encoding="UTF-8"?>
<svg width="18px" height="18px" viewBox="0 0 18 18" version="1.1" xmlns="http://www.w3.org/2000/svg" xmlns:xlink="http://www.w3.org/1999/xlink">
    <!-- Generator: Sketch 53 (72520) - https://sketchapp.com -->
    <desc>Created with Sketch.</desc>
    <defs>
        <rect id="path-1" x="0" y="0" width="18" height="18"></rect>
        <path d="M15.2240989,6.53638101 C15.3132474,6.66780454 15.462253,6.74935588 15.6225,6.75 L15.75,6.75 C16.9926407,6.75 18,7.75735931 18,9 C18,10.2426407 16.9926407,11.25 15.75,11.25 L15.6854912,11.249994 C15.4911876,11.250769 15.3158978,11.366855 15.2393549,11.5454486 C15.1556809,11.7351461 15.1942911,11.948087 15.3278301,12.0846699 L15.372535,12.129375 C15.7950334,12.5514036 16.03243,13.1240792 16.03243,13.72125 C16.03243,14.3184208 15.7950334,14.8910964 15.373125,15.312535 C14.9510964,15.7350334 14.3784208,15.97243 13.78125,15.97243 C13.1840792,15.97243 12.6114036,15.7350334 12.1896699,15.3128301 L12.1505513,15.2736469 C12.008087,15.1342911 11.7951461,15.0956809 11.6054486,15.1793549 C11.426855,15.2558978 11.310769,15.4311876 11.31,15.6225 L11.31,15.75 C11.31,16.9926407 10.3026407,18 9.06,18 C7.81735931,18 6.81,16.9926407 6.81,15.75 C6.80552409,15.4999185 6.67898539,15.3229986 6.44717599,15.2361469 C6.26485393,15.1556809 6.05191298,15.1942911 5.91533009,15.3278301 L5.870625,15.372535 C5.44859642,15.7950334 4.87592081,16.03243 4.27875,16.03243 C3.68157919,16.03243 3.10890358,15.7950334 2.68746499,15.373125 C2.26496665,14.9510964 2.02757002,14.3784208 2.02757002,13.78125 C2.02757002,13.1840792 2.26496665,12.6114036 2.68716991,12.1896699 L2.72635306,12.1505513 C2.86570889,12.008087 2.90431906,11.7951461 2.82064513,11.6054486 C2.74410223,11.426855 2.56881236,11.310769 2.3775,11.31 L2.25,11.31 C1.00735931,11.31 2.49800181e-16,10.3026407 0,9.06 C-1.66533454e-16,7.81735931 1.00735931,6.81 2.25,6.81 C2.50008154,6.80552409 2.67700139,6.67898539 2.76385306,6.44717599 C2.84431906,6.26485393 2.80570889,6.05191298 2.67216991,5.91533009 L2.62746499,5.870625 C2.20496665,5.44859642 1.96757002,4.87592081 1.96757002,4.27875 C1.96757002,3.68157919 2.20496665,3.10890358 2.626875,2.68746499 C3.04890358,2.26496665 3.62157919,2.02757002 4.21875,2.02757002 C4.81592081,2.02757002 5.38859642,2.26496665 5.81033009,2.68716991 L5.84944872,2.72635306 C5.99191298,2.86570889 6.20485393,2.90431906 6.38717599,2.82385306 C6.43522985,2.80264498 6.4852454,2.78660183 6.53638101,2.77590109 C6.66780454,2.68675256 6.74935588,2.53774702 6.75,2.3775 L6.75,2.25 C6.75,1.00735931 7.75735931,2.49800181e-16 9,0 C10.2426407,0 11.25,1.00735931 11.25,2.25 L11.249994,2.31450877 C11.250769,2.50881236 11.366855,2.68410223 11.552824,2.76385306 C11.7351461,2.84431906 11.948087,2.80570889 12.0846699,2.67216991 L12.129375,2.62746499 C12.5514036,2.20496665 13.1240792,1.96757002 13.72125,1.96757002 C14.3184208,1.96757002 14.8910964,2.20496665 15.312535,2.626875 C15.7350334,3.04890358 15.97243,3.62157919 15.97243,4.21875 C15.97243,4.81592081 15.7350334,5.38859642 15.3128301,5.81033009 L15.2736469,5.84944872 C15.1342911,5.99191298 15.0956809,6.20485393 15.1761469,6.38717599 C15.197355,6.43522985 15.2133982,6.4852454 15.2240989,6.53638101 Z M6.84733945,4.25365657 C6.13853835,4.50212853 5.34347236,4.32971788 4.79466991,3.79283009 L4.749375,3.74753501 C4.60869881,3.60670223 4.41780694,3.52757002 4.21875,3.52757002 C4.01969306,3.52757002 3.82880119,3.60670223 3.68753501,3.748125 C3.54670223,3.88880119 3.46757002,4.07969306 3.46757002,4.27875 C3.46757002,4.47780694 3.54670223,4.66869881 3.68783009,4.80966991 L3.73864694,4.86055128 C4.30678993,5.44136712 4.46420062,6.30951097 4.15390208,7.00888582 C3.87220084,7.77482227 3.15091222,8.29071082 2.3175,8.31 L2.25,8.31 C1.83578644,8.31 1.5,8.64578644 1.5,9.06 C1.5,9.47421356 1.83578644,9.81 2.25,9.81 L2.38049123,9.81000597 C3.17265203,9.81316537 3.88729535,10.2864391 4.19614694,11.007176 C4.52420062,11.750489 4.36678993,12.6186329 3.79283009,13.2053301 L3.74753501,13.250625 C3.60670223,13.3913012 3.52757002,13.5821931 3.52757002,13.78125 C3.52757002,13.9803069 3.60670223,14.1711988 3.748125,14.312465 C3.88880119,14.4532978 4.07969306,14.53243 4.27875,14.53243 C4.47780694,14.53243 4.66869881,14.4532978 4.80966991,14.3121699 L4.86055128,14.2613531 C5.44136712,13.6932101 6.30951097,13.5357994 7.00888582,13.8460979 C7.77482227,14.1277992 8.29071082,14.8490878 8.31,15.6825 L8.31,15.75 C8.31,16.1642136 8.64578644,16.5 9.06,16.5 C9.47421356,16.5 9.81,16.1642136 9.81,15.75 L9.81000597,15.6195088 C9.81316537,14.827348 10.2864391,14.1127047 11.007176,13.8038531 C11.750489,13.4757994 12.6186329,13.6332101 13.2053301,14.2071699 L13.250625,14.252465 C13.3913012,14.3932978 13.5821931,14.47243 13.78125,14.47243 C13.9803069,14.47243 14.1711988,14.3932978 14.312465,14.251875 C14.4532978,14.1111988 14.53243,13.9203069 14.53243,13.72125 C14.53243,13.5221931 14.4532978,13.3313012 14.3121699,13.1903301 L14.2613531,13.1394487 C13.6932101,12.5586329 13.5357994,11.690489 13.8638531,10.947176 C14.1727047,10.2264391 14.887348,9.75316537 15.6825,9.75 L15.75,9.75 C16.1642136,9.75 16.5,9.41421356 16.5,9 C16.5,8.58578644 16.1642136,8.25 15.75,8.25 L15.6195088,8.24999403 C14.827348,8.24683463 14.1127047,7.7735609 13.8006451,7.04544858 C13.7734834,6.9820735 13.7552523,6.91540146 13.7463434,6.84733945 C13.4978715,6.13853835 13.6702821,5.34347236 14.2071699,4.79466991 L14.252465,4.749375 C14.3932978,4.60869881 14.47243,4.41780694 14.47243,4.21875 C14.47243,4.01969306 14.3932978,3.82880119 14.251875,3.68753501 C14.1111988,3.54670223 13.9203069,3.46757002 13.72125,3.46757002 C13.5221931,3.46757002 13.3313012,3.54670223 13.1903301,3.68783009 L13.1394487,3.73864694 C12.5586329,4.30678993 11.690489,4.46420062 10.9545514,4.13935487 C10.2264391,3.82729535 9.75316537,3.11265203 9.75,2.3175 L9.75,2.25 C9.75,1.83578644 9.41421356,1.5 9,1.5 C8.58578644,1.5 8.25,1.83578644 8.25,2.25 L8.24999403,2.38049123 C8.24683463,3.17265203 7.7735609,3.88729535 7.04544858,4.19935487 C6.9820735,4.22651661 6.91540146,4.24474765 6.84733945,4.25365657 Z M9,12 C7.34314575,12 6,10.6568542 6,9 C6,7.34314575 7.34314575,6 9,6 C10.6568542,6 12,7.34314575 12,9 C12,10.6568542 10.6568542,12 9,12 Z M9,10.5 C9.82842712,10.5 10.5,9.82842712 10.5,9 C10.5,8.17157288 9.82842712,7.5 9,7.5 C8.17157288,7.5 7.5,8.17157288 7.5,9 C7.5,9.82842712 8.17157288,10.5 9,10.5 Z" id="path-3"></path>
    </defs>
    <g id="Welcome" stroke="none" stroke-width="1" fill="none" fill-rule="evenodd">
        <g id="settings">
            <mask id="mask-2" fill="white">
                <use xlink:href="#path-1"></use>
            </mask>
            <g id="Background"></g>
            <g mask="url(#mask-2)">
                <mask id="mask-4" fill="white">
                    <use xlink:href="#path-3"></use>
                </mask>
                <use id="Combined-Shape" fill="#000000" fill-rule="nonzero" xlink:href="#path-3"></use>
                <g id="COLOR/-black-Copy" mask="url(#mask-4)" fill="#FFFFFF" fill-rule="evenodd">
                    <rect id="Rectangle" x="0" y="0" width="18" height="18"></rect>
                </g>
            </g>
        </g>
    </g>
</svg>